mtllib concreteBaseMax.mtl

#
# object default
#

v  2.3417 -0.0361 0.5028
v  -2.5583 -0.0361 0.5028
v  -2.5583 -0.0361 -1.4002
v  2.3417 -0.0361 -1.4002
v  -0.2265 1.0910 0.2207
v  -0.3041 1.0910 0.1045
v  -2.5498 1.0910 0.4866
v  2.3350 1.0910 0.4859
v  0.2938 1.0910 0.1054
v  0.2171 1.0910 0.2205
v  0.1173 1.0910 0.2871
v  -0.0050 1.0910 0.3114
v  -0.1273 1.0910 0.2871
v  -0.2526 0.0651 0.0921
v  -0.2531 1.0410 0.0946
v  -0.1949 1.0410 0.1818
v  -0.1920 0.0646 0.1826
v  -2.5583 1.0410 -1.4502
v  2.3417 1.0410 -1.4502
v  2.3417 0.0139 -1.4502
v  -2.5583 0.0139 -1.4502
v  -2.5499 1.0910 -1.3841
v  -0.3100 1.0910 -1.0058
v  -0.3002 1.0910 -1.0549
v  -0.2309 1.0910 -1.1585
v  -0.1273 1.0910 -1.2278
v  -0.0050 1.0910 -1.2521
v  2.3349 1.0910 -1.3845
v  0.1173 1.0910 -1.2278
v  0.2166 1.0910 -1.1615
v  0.2942 1.0910 -1.0452
v  2.3417 1.0410 0.5528
v  -2.5583 1.0410 0.5528
v  -2.5583 0.0139 0.5528
v  2.3417 0.0139 0.5528
v  2.3917 1.0410 -1.4002
v  2.3917 1.0410 0.5028
v  2.3917 0.0139 0.5028
v  2.3917 0.0139 -1.4002
v  0.3155 1.0910 -0.0038
v  0.3156 1.0910 -0.9374
v  0.2903 1.0910 -0.8103
v  0.2210 1.0910 -0.7066
v  -0.3245 1.0910 -0.9326
v  -0.3002 1.0910 -0.8103
v  -0.2309 1.0910 -0.7066
v  -0.1273 1.0910 -0.6373
v  -0.3255 1.0910 -0.0034
v  -0.3002 1.0910 -0.1305
v  -0.2309 1.0910 -0.2341
v  -0.0050 1.0910 -0.6130
v  0.1173 1.0910 -0.6373
v  -0.1273 1.0910 -0.3034
v  -0.0050 1.0910 -0.3277
v  0.1173 1.0910 -0.3034
v  0.2210 1.0910 -0.2341
v  0.2903 1.0910 -0.1305
v  0.1007 0.0628 0.2415
v  0.0978 1.0410 0.2400
v  0.1850 1.0410 0.1818
v  0.1889 0.0622 0.1813
v  0.2678 0.0615 -0.0098
v  0.2475 0.0617 0.0946
v  0.2432 1.0410 0.0946
v  0.2636 1.0410 -0.0082
v  -0.0037 0.0636 0.2624
v  -0.0050 1.0410 0.2604
v  -0.1052 0.0641 0.2409
v  -0.1077 1.0410 0.2400
v  0.2487 0.0615 -0.1120
v  0.2432 1.0410 -0.1110
v  -0.2735 0.0652 -0.0099
v  -0.2736 1.0410 -0.0082
v  -0.1943 0.0646 -0.1990
v  -0.1949 1.0410 -0.1981
v  -0.2531 1.0410 -0.1110
v  -0.2527 0.0650 -0.1131
v  -0.1068 0.0640 -0.2596
v  -0.1077 1.0410 -0.2563
v  -0.0036 0.0633 -0.2804
v  -0.0050 1.0410 -0.2768
v  0.0999 0.0626 -0.2599
v  0.0978 1.0410 -0.2563
v  0.1878 0.0620 -0.2003
v  0.1850 1.0410 -0.1981
v  -0.1974 0.0621 -1.1277
v  -0.1949 1.0410 -1.1225
v  -0.2531 1.0410 -1.0354
v  -0.2572 0.0628 -1.0379
v  0.2461 0.0626 -1.0400
v  0.2672 0.0633 -0.9350
v  0.2636 1.0410 -0.9326
v  0.2432 1.0410 -1.0354
v  0.1872 0.0620 -1.1291
v  0.0982 0.0617 -1.1869
v  -0.0056 0.0616 -1.2073
v  -0.1099 0.0617 -1.1869
v  -0.2783 0.0634 -0.9348
v  -0.2567 0.0641 -0.8308
v  -0.1960 0.0648 -0.7409
v  -0.1096 0.0651 -0.6834
v  -0.0053 0.0651 -0.6636
v  0.0985 0.0649 -0.6850
v  0.1872 0.0646 -0.7418
v  0.2460 0.0641 -0.8297
v  0.1850 1.0410 -0.7426
v  0.2432 1.0410 -0.8298
v  0.0978 1.0410 -0.6844
v  -0.0050 1.0410 -0.6640
v  -0.1077 1.0410 -0.6844
v  -0.1949 1.0410 -0.7426
v  -0.2531 1.0410 -0.8298
v  -0.2736 1.0410 -0.9326
v  -0.2609 1.0410 -0.9963
v  -0.1077 1.0410 -1.1807
v  -0.0050 1.0410 -1.2012
v  0.0978 1.0410 -1.1807
v  0.1850 1.0410 -1.1225
v  -2.6083 0.0139 -1.4002
v  -2.6083 1.0410 -1.4002
v  -2.6083 1.0410 0.5028
v  -2.6083 0.0139 0.5028
# 122 vertices

vn 0.0000 -1.0000 -0.0000
vn 0.0000 1.0000 -0.0000
vn 0.8315 0.0000 -0.5556
vn 0.8314 0.0002 -0.5556
vn 0.0000 0.0000 -1.0000
vn -0.0000 0.0000 1.0000
vn 1.0000 0.0000 0.0000
vn -0.5556 0.0000 -0.8315
vn -0.9808 0.0000 -0.1951
vn -0.9808 -0.0001 -0.1950
vn -0.1951 0.0000 -0.9808
vn 0.1951 0.0000 -0.9808
vn -0.9808 0.0000 0.1951
vn 0.9805 0.0004 -0.1967
vn 0.9808 0.0000 -0.1952
vn 0.9804 0.0004 -0.1968
vn 0.9808 0.0000 -0.1951
vn 0.5555 0.0000 -0.8315
vn 0.5556 0.0000 -0.8314
vn 0.5557 0.0001 -0.8314
vn -0.8315 0.0000 -0.5556
vn 0.8315 0.0000 0.5556
vn 0.8314 0.0000 0.5556
vn 0.5556 0.0000 0.8315
vn 0.1951 -0.0001 0.9808
vn 0.1952 -0.0004 0.9808
vn 0.1951 -0.0002 0.9808
vn -0.1951 0.0000 0.9808
vn -0.1951 -0.0001 0.9808
vn -0.5555 0.0000 0.8315
vn -0.5556 0.0000 0.8315
vn -0.8315 0.0000 0.5556
vn 0.8315 0.0000 0.5555
vn 0.0000 1.0000 -0.0001
vn -0.0000 1.0000 0.0001
vn -0.0003 1.0000 -0.0001
vn -0.0001 1.0000 0.0001
vn -0.5552 0.0001 -0.8317
vn 0.5556 0.0000 -0.8315
vn 0.8314 0.0000 -0.5556
vn 0.9808 0.0000 -0.1950
vn 0.9808 0.0000 0.1951
vn 0.9808 0.0000 0.1952
vn 0.9807 0.0000 0.1953
vn 0.1951 0.0000 0.9808
vn 0.1950 -0.0001 0.9808
vn 0.0134 0.9999 -0.0008
vn 0.0134 0.9999 -0.0007
vn 0.0133 0.9999 -0.0007
vn 0.0132 0.9999 -0.0006
vn 0.0133 0.9999 -0.0009
vn 0.0132 0.9999 -0.0007
vn -0.9808 -0.0001 -0.1951
vn -0.8315 -0.0001 0.5555
vn -0.8315 0.0000 0.5555
vn -0.5774 -0.5774 -0.5773
vn -0.4871 0.7249 -0.4871
vn 0.4938 0.7158 -0.4938
vn 0.5774 -0.5774 -0.5773
vn 0.4903 0.7206 0.4903
vn 0.5773 -0.5774 0.5773
vn -0.4864 0.7259 0.4863
vn -0.5773 -0.5774 0.5773
vn -0.7071 0.0000 -0.7071
vn 0.0000 0.7965 -0.6046
vn 0.0000 -0.7071 -0.7071
vn 0.6613 0.7501 0.0000
vn 0.7071 -0.7071 0.0000
vn -0.0000 0.7992 0.6011
vn -0.0000 -0.7071 0.7071
vn 0.6433 0.7119 -0.2818
vn 0.6507 0.7144 -0.2573
vn 0.4962 0.7069 -0.5041
vn 0.5059 0.7062 -0.4953
vn -0.6435 0.7122 -0.2805
vn -0.5049 0.7070 -0.4952
vn -0.4961 0.7076 -0.5032
vn -0.6504 0.7143 -0.2582
vn -0.2680 0.7139 -0.6469
vn 0.0000 0.7139 -0.7002
vn 0.2680 0.7139 -0.6469
vn -0.6939 0.7201 -0.0045
vn -0.6943 0.7196 0.0061
vn -0.6937 0.7202 -0.0067
vn -0.6932 0.7208 0.0049
vn -0.6507 0.7144 0.2572
vn -0.6433 0.7118 0.2819
vn -0.6469 0.7139 -0.2680
vn -0.4951 0.7139 -0.4951
vn -0.2679 0.7139 -0.6469
vn 0.4951 0.7139 -0.4951
vn 0.6469 0.7139 -0.2680
vn 0.7002 0.7139 0.0000
vn 0.6935 0.7071 0.1379
vn 0.6938 0.7202 0.0067
vn 0.6932 0.7207 -0.0049
vn 0.6469 0.7139 0.2680
vn 0.4951 0.7139 0.4951
vn 0.2680 0.7139 0.6469
vn -0.0000 0.7139 0.7002
vn 0.7071 0.0000 -0.7071
vn -0.4951 0.7139 0.4951
vn -0.2680 0.7139 0.6469
vn -0.6469 0.7139 0.2680
vn -0.7071 -0.7071 -0.0000
vn -0.6502 0.7598 -0.0000
vn -0.4962 0.7069 0.5041
vn -0.5060 0.7061 0.4953
vn 0.7071 0.0000 0.7071
vn -0.7071 0.0000 0.7071
vn -1.0000 0.0000 -0.0000
# 111 vertex normals

vt 0.1860 0.0104 0.0000
vt 0.1860 0.4725 0.0000
vt 0.0065 0.4725 0.0000
vt 0.0065 0.0104 0.0000
vt 0.2214 0.2520 0.0000
vt 0.2324 0.2593 0.0000
vt 0.1964 0.4711 0.0000
vt 0.1964 0.0104 0.0000
vt 0.2323 0.2029 0.0000
vt 0.2214 0.2101 0.0000
vt 0.2152 0.2195 0.0000
vt 0.2129 0.2311 0.0000
vt 0.2152 0.2426 0.0000
vt 0.1719 0.4830 0.0000
vt 0.1719 0.5750 0.0000
vt 0.1622 0.5750 0.0000
vt 0.1619 0.4830 0.0000
vt 0.4801 0.0104 0.0000
vt 0.4801 0.4725 0.0000
vt 0.3832 0.4725 0.0000
vt 0.3832 0.0104 0.0000
vt 0.3728 0.4711 0.0000
vt 0.3371 0.2598 0.0000
vt 0.3417 0.2589 0.0000
vt 0.3515 0.2524 0.0000
vt 0.3580 0.2426 0.0000
vt 0.3603 0.2311 0.0000
vt 0.3728 0.0104 0.0000
vt 0.3580 0.2195 0.0000
vt 0.3518 0.2102 0.0000
vt 0.3408 0.2028 0.0000
vt 0.4905 0.4725 0.0000
vt 0.4905 0.0104 0.0000
vt 0.5874 0.0104 0.0000
vt 0.5874 0.4725 0.0000
vt 0.0065 0.6318 0.0000
vt 0.0065 0.4895 0.0000
vt 0.1033 0.4897 0.0000
vt 0.1034 0.6320 0.0000
vt 0.2426 0.2008 0.0000
vt 0.3307 0.2008 0.0000
vt 0.3187 0.2032 0.0000
vt 0.3089 0.2097 0.0000
vt 0.3302 0.2612 0.0000
vt 0.3187 0.2589 0.0000
vt 0.3089 0.2524 0.0000
vt 0.3024 0.2426 0.0000
vt 0.2426 0.2613 0.0000
vt 0.2545 0.2589 0.0000
vt 0.2643 0.2524 0.0000
vt 0.3001 0.2311 0.0000
vt 0.3024 0.2195 0.0000
vt 0.2709 0.2426 0.0000
vt 0.2732 0.2311 0.0000
vt 0.2709 0.2195 0.0000
vt 0.2643 0.2097 0.0000
vt 0.2545 0.2032 0.0000
vt 0.3622 0.5842 0.0000
vt 0.3622 0.6765 0.0000
vt 0.3525 0.6765 0.0000
vt 0.3523 0.5841 0.0000
vt 0.1618 0.5855 0.0000
vt 0.1717 0.5855 0.0000
vt 0.1717 0.6778 0.0000
vt 0.1620 0.6778 0.0000
vt 0.5774 0.5858 0.0000
vt 0.5773 0.6780 0.0000
vt 0.5676 0.6780 0.0000
vt 0.5676 0.5857 0.0000
vt 0.5870 0.5859 0.0000
vt 0.5870 0.6780 0.0000
vt 0.1522 0.5855 0.0000
vt 0.1523 0.6778 0.0000
vt 0.1801 0.4830 0.0000
vt 0.1801 0.5750 0.0000
vt 0.1525 0.5751 0.0000
vt 0.1522 0.4829 0.0000
vt 0.3426 0.5841 0.0000
vt 0.3428 0.6765 0.0000
vt 0.3521 0.5736 0.0000
vt 0.3521 0.4815 0.0000
vt 0.3620 0.4815 0.0000
vt 0.3619 0.5736 0.0000
vt 0.3426 0.5737 0.0000
vt 0.3427 0.4815 0.0000
vt 0.1333 0.6777 0.0000
vt 0.1235 0.6778 0.0000
vt 0.1236 0.5856 0.0000
vt 0.1333 0.5855 0.0000
vt 0.1138 0.6778 0.0000
vt 0.1139 0.5856 0.0000
vt 0.5874 0.5752 0.0000
vt 0.5775 0.5753 0.0000
vt 0.5777 0.4829 0.0000
vt 0.5874 0.4829 0.0000
vt 0.5676 0.5753 0.0000
vt 0.5680 0.4829 0.0000
vt 0.3227 0.4815 0.0000
vt 0.3225 0.5739 0.0000
vt 0.3126 0.5739 0.0000
vt 0.3126 0.4816 0.0000
vt 0.5978 0.4829 0.0000
vt 0.6077 0.4830 0.0000
vt 0.6079 0.5752 0.0000
vt 0.5982 0.5752 0.0000
vt 0.4137 0.5333 0.0000
vt 0.4036 0.5334 0.0000
vt 0.3942 0.5296 0.0000
vt 0.3872 0.5225 0.0000
vt 0.3833 0.5133 0.0000
vt 0.3832 0.5033 0.0000
vt 0.3870 0.4941 0.0000
vt 0.3942 0.4868 0.0000
vt 0.4033 0.4829 0.0000
vt 0.4133 0.4829 0.0000
vt 0.4228 0.4868 0.0000
vt 0.4297 0.4937 0.0000
vt 0.4335 0.5030 0.0000
vt 0.4335 0.5130 0.0000
vt 0.4300 0.5223 0.0000
vt 0.4230 0.5294 0.0000
vt 0.5978 0.5856 0.0000
vt 0.6075 0.5857 0.0000
vt 0.6075 0.6778 0.0000
vt 0.5979 0.6777 0.0000
vt 0.6172 0.5857 0.0000
vt 0.6172 0.6778 0.0000
vt 0.3135 0.6763 0.0000
vt 0.3134 0.5843 0.0000
vt 0.3231 0.5843 0.0000
vt 0.3233 0.6763 0.0000
vt 0.3036 0.6763 0.0000
vt 0.3037 0.5843 0.0000
vt 0.1322 0.5750 0.0000
vt 0.1321 0.4829 0.0000
vt 0.1418 0.4829 0.0000
vt 0.1418 0.5750 0.0000
vt 0.1221 0.5751 0.0000
vt 0.1224 0.4829 0.0000
vt 0.1138 0.5751 0.0000
vt 0.1142 0.4829 0.0000
vt 0.3036 0.4817 0.0000
vt 0.3092 0.5739 0.0000
vt 0.3037 0.5739 0.0000
vt 0.3708 0.4815 0.0000
vt 0.3708 0.5735 0.0000
vt 0.3322 0.4815 0.0000
vt 0.3318 0.5739 0.0000
vt 0.5075 0.4829 0.0000
vt 0.5173 0.4829 0.0000
vt 0.5174 0.5753 0.0000
vt 0.5077 0.5753 0.0000
vt 0.5271 0.4829 0.0000
vt 0.5271 0.5753 0.0000
vt 0.5375 0.4829 0.0000
vt 0.5473 0.4830 0.0000
vt 0.5475 0.5753 0.0000
vt 0.5378 0.5753 0.0000
vt 0.4031 0.5938 0.0000
vt 0.3939 0.5900 0.0000
vt 0.3871 0.5829 0.0000
vt 0.3832 0.5734 0.0000
vt 0.3833 0.5636 0.0000
vt 0.3869 0.5545 0.0000
vt 0.3941 0.5475 0.0000
vt 0.4035 0.5438 0.0000
vt 0.4133 0.5438 0.0000
vt 0.4226 0.5477 0.0000
vt 0.4295 0.5546 0.0000
vt 0.4332 0.5640 0.0000
vt 0.4332 0.5741 0.0000
vt 0.4293 0.5832 0.0000
vt 0.4222 0.5902 0.0000
vt 0.4129 0.5938 0.0000
vt 0.6176 0.4831 0.0000
vt 0.6176 0.5752 0.0000
vt 0.5572 0.4830 0.0000
vt 0.5572 0.5753 0.0000
vt 0.6727 0.4466 0.0000
vt 0.6660 0.4466 0.0000
vt 0.6694 0.4419 0.0000
vt 0.6538 0.4035 0.0000
vt 0.6502 0.3970 0.0000
vt 0.6579 0.3983 0.0000
vt 0.4643 0.6640 0.0000
vt 0.4609 0.6570 0.0000
vt 0.4680 0.6585 0.0000
vt 0.6727 0.5606 0.0000
vt 0.6660 0.5606 0.0000
vt 0.6694 0.5559 0.0000
vt 0.6501 0.4325 0.0000
vt 0.6460 0.4265 0.0000
vt 0.6539 0.4270 0.0000
vt 0.6319 0.4466 0.0000
vt 0.6352 0.4419 0.0000
vt 0.6386 0.4466 0.0000
vt 0.4434 0.6557 0.0000
vt 0.4507 0.6572 0.0000
vt 0.4470 0.6627 0.0000
vt 0.4776 0.5859 0.0000
vt 0.4843 0.5859 0.0000
vt 0.4809 0.5906 0.0000
vt 0.6727 0.5517 0.0000
vt 0.6660 0.5517 0.0000
vt 0.6660 0.4548 0.0000
vt 0.6727 0.4548 0.0000
vt 0.6502 0.0104 0.0000
vt 0.6579 0.0105 0.0000
vt 0.6579 0.3932 0.0000
vt 0.6502 0.3919 0.0000
vt 0.6148 0.0104 0.0000
vt 0.6215 0.0104 0.0000
vt 0.6215 0.4725 0.0000
vt 0.6148 0.4725 0.0000
vt 0.4616 0.4842 0.0000
vt 0.4687 0.4829 0.0000
vt 0.4687 0.6474 0.0000
vt 0.4616 0.6459 0.0000
vt 0.6319 0.4548 0.0000
vt 0.6386 0.4548 0.0000
vt 0.6386 0.6343 0.0000
vt 0.6319 0.6343 0.0000
vt 0.6320 0.0111 0.0000
vt 0.6398 0.0104 0.0000
vt 0.6398 0.4342 0.0000
vt 0.6319 0.4337 0.0000
vt 0.6044 0.4725 0.0000
vt 0.5978 0.4725 0.0000
vt 0.5978 0.0104 0.0000
vt 0.6044 0.0104 0.0000
vt 0.6764 0.0406 0.0000
vt 0.6702 0.0434 0.0000
vt 0.6683 0.0304 0.0000
vt 0.6750 0.0308 0.0000
vt 0.5456 0.6507 0.0000
vt 0.5442 0.6605 0.0000
vt 0.5375 0.6609 0.0000
vt 0.5394 0.6480 0.0000
vt 0.5456 0.6699 0.0000
vt 0.5391 0.6717 0.0000
vt 0.5496 0.6777 0.0000
vt 0.5439 0.6809 0.0000
vt 0.6699 0.0196 0.0000
vt 0.6764 0.0213 0.0000
vt 0.5436 0.6388 0.0000
vt 0.5496 0.6421 0.0000
vt 0.5196 0.6777 0.0000
vt 0.5136 0.6809 0.0000
vt 0.5094 0.6719 0.0000
vt 0.5155 0.6691 0.0000
vt 0.5196 0.5896 0.0000
vt 0.5156 0.5982 0.0000
vt 0.5091 0.5963 0.0000
vt 0.5141 0.5857 0.0000
vt 0.5142 0.6080 0.0000
vt 0.5075 0.6080 0.0000
vt 0.5156 0.6175 0.0000
vt 0.5091 0.6193 0.0000
vt 0.5196 0.6252 0.0000
vt 0.5139 0.6285 0.0000
vt 0.4139 0.6152 0.0000
vt 0.4074 0.6134 0.0000
vt 0.4122 0.6042 0.0000
vt 0.4179 0.6075 0.0000
vt 0.4125 0.6247 0.0000
vt 0.4058 0.6247 0.0000
vt 0.4139 0.6345 0.0000
vt 0.4074 0.6363 0.0000
vt 0.4179 0.6431 0.0000
vt 0.4122 0.6466 0.0000
vt 0.3954 0.6075 0.0000
vt 0.3929 0.6123 0.0000
vt 0.3868 0.6097 0.0000
vt 0.3897 0.6042 0.0000
vt 0.6804 0.0492 0.0000
vt 0.6744 0.0524 0.0000
vt 0.4971 0.5985 0.0000
vt 0.4931 0.6063 0.0000
vt 0.4866 0.6045 0.0000
vt 0.4915 0.5949 0.0000
vt 0.4916 0.6157 0.0000
vt 0.4849 0.6158 0.0000
vt 0.4931 0.6255 0.0000
vt 0.4866 0.6274 0.0000
vt 0.4971 0.6341 0.0000
vt 0.4914 0.6376 0.0000
vt 0.6660 0.5668 0.0000
vt 0.6727 0.5668 0.0000
vt 0.6727 0.6637 0.0000
vt 0.6660 0.6637 0.0000
vt 0.5442 0.6062 0.0000
vt 0.5375 0.6062 0.0000
vt 0.5392 0.5949 0.0000
vt 0.5456 0.5967 0.0000
vt 0.5392 0.6178 0.0000
vt 0.5456 0.6160 0.0000
vt 0.5497 0.6246 0.0000
vt 0.5441 0.6284 0.0000
vt 0.3914 0.6152 0.0000
vt 0.3849 0.6134 0.0000
vt 0.6556 0.6296 0.0000
vt 0.6490 0.6296 0.0000
vt 0.6490 0.4501 0.0000
vt 0.6556 0.4501 0.0000
vt 0.3914 0.6345 0.0000
vt 0.3849 0.6363 0.0000
vt 0.3832 0.6247 0.0000
vt 0.3899 0.6247 0.0000
vt 0.3954 0.6431 0.0000
vt 0.3897 0.6466 0.0000
vt 0.4512 0.6475 0.0000
vt 0.4439 0.6460 0.0000
vt 0.4440 0.4842 0.0000
vt 0.4512 0.4829 0.0000
vt 0.5075 0.6589 0.0000
vt 0.5141 0.6593 0.0000
vt 0.1034 0.4830 0.0000
vt 0.0065 0.4829 0.0000
vt 0.4971 0.5798 0.0000
vt 0.4904 0.5798 0.0000
vt 0.4904 0.4829 0.0000
vt 0.4971 0.4829 0.0000
vt 0.5155 0.6499 0.0000
vt 0.5091 0.6481 0.0000
vt 0.5439 0.5857 0.0000
vt 0.5497 0.5890 0.0000
vt 0.6747 0.0104 0.0000
vt 0.6804 0.0136 0.0000
vt 0.5138 0.6389 0.0000
vt 0.5196 0.6421 0.0000
vt 0.2932 0.4815 0.0000
vt 0.2932 0.6610 0.0000
vt 0.1964 0.6610 0.0000
vt 0.1964 0.4815 0.0000
# 334 texture coords

g default
usemtl Material_002
s 1
f 1/1/1 2/2/1 3/3/1 
f 3/3/1 4/4/1 1/1/1 
f 5/5/2 6/6/2 7/7/2 
f 8/8/2 9/9/2 10/10/2 
f 8/8/2 10/10/2 11/11/2 
f 8/8/2 11/11/2 12/12/2 
f 7/7/2 8/8/2 12/12/2 
f 7/7/2 12/12/2 13/13/2 
f 5/5/2 7/7/2 13/13/2 
f 14/14/3 15/15/3 16/16/3 
f 16/16/3 17/17/4 14/14/3 
f 18/18/5 19/19/5 20/20/5 
f 20/20/5 21/21/5 18/18/5 
f 22/22/2 23/23/2 24/24/2 
f 22/22/2 24/24/2 25/25/2 
f 22/22/2 25/25/2 26/26/2 
f 22/22/2 26/26/2 27/27/2 
f 28/28/2 22/22/2 27/27/2 
f 28/28/2 27/27/2 29/29/2 
f 28/28/2 29/29/2 30/30/2 
f 31/31/2 28/28/2 30/30/2 
f 32/32/6 33/33/6 34/34/6 
f 34/34/6 35/35/6 32/32/6 
f 36/36/7 37/37/7 38/38/7 
f 38/38/7 39/39/7 36/36/7 
f 40/40/2 9/9/2 8/8/2 
f 8/8/2 28/28/2 31/31/2 
f 8/8/2 31/31/2 41/41/2 
f 8/8/2 41/41/2 42/42/2 
f 8/8/2 42/42/2 43/43/2 
f 44/44/2 23/23/2 22/22/2 
f 45/45/2 44/44/2 22/22/2 
f 46/46/2 45/45/2 22/22/2 
f 47/47/2 46/46/2 22/22/2 
f 22/22/2 7/7/2 6/6/2 
f 22/22/2 6/6/2 48/48/2 
f 22/22/2 48/48/2 49/49/2 
f 22/22/2 49/49/2 50/50/2 
f 47/47/2 22/22/2 50/50/2 
f 51/51/2 47/47/2 50/50/2 
f 52/52/2 51/51/2 50/50/2 
f 43/43/2 52/52/2 50/50/2 
f 43/43/2 50/50/2 53/53/2 
f 43/43/2 53/53/2 54/54/2 
f 43/43/2 54/54/2 55/55/2 
f 8/8/2 43/43/2 55/55/2 
f 8/8/2 55/55/2 56/56/2 
f 8/8/2 56/56/2 57/57/2 
f 40/40/2 8/8/2 57/57/2 
f 58/58/8 59/59/8 60/60/8 
f 60/60/8 61/61/8 58/58/8 
f 62/62/9 63/63/10 64/64/9 
f 64/64/9 65/65/9 62/62/9 
f 66/66/11 67/67/11 59/68/11 
f 59/68/11 58/69/11 66/66/11 
f 68/70/12 69/71/12 67/67/12 
f 67/67/12 66/66/12 68/70/12 
f 70/72/13 62/62/13 65/65/13 
f 65/65/13 71/73/13 70/72/13 
f 72/74/14 73/75/15 15/15/16 
f 15/15/16 14/14/17 72/74/14 
f 17/17/18 16/16/19 69/76/18 
f 69/76/18 68/77/20 17/17/18 
f 63/78/21 61/61/21 60/60/21 
f 60/60/21 64/79/21 63/78/21 
f 74/80/22 75/81/23 76/82/22 
f 76/82/22 77/83/22 74/80/22 
f 74/80/24 78/84/24 79/85/24 
f 79/85/24 75/81/24 74/80/24 
f 78/86/25 80/87/26 81/88/25 
f 81/88/25 79/89/27 78/86/25 
f 80/87/28 82/90/28 83/91/29 
f 83/91/29 81/88/28 80/87/28 
f 82/92/30 84/93/31 85/94/30 
f 85/94/30 83/95/31 82/92/30 
f 84/93/32 70/96/32 71/97/32 
f 71/97/32 85/94/32 84/93/32 
f 86/98/22 87/99/33 88/100/22 
f 88/100/22 89/101/33 86/98/22 
f 90/102/13 91/103/13 92/104/13 
f 92/104/13 93/105/13 90/102/13 
f 91/106/2 90/107/34 94/108/2 
f 94/108/2 95/109/35 96/110/2 
f 96/110/2 97/111/2 86/112/2 
f 94/108/2 96/110/2 86/112/2 
f 86/112/2 89/113/36 98/114/2 
f 98/114/2 99/115/2 100/116/35 
f 86/112/2 98/114/2 100/116/35 
f 100/116/35 101/117/2 102/118/35 
f 102/118/35 103/119/35 104/120/37 
f 100/116/35 102/118/35 104/120/37 
f 86/112/2 100/116/35 104/120/37 
f 94/108/2 86/112/2 104/120/37 
f 91/106/2 94/108/2 104/120/37 
f 105/121/35 91/106/2 104/120/37 
f 105/122/21 104/123/21 106/124/21 
f 106/124/21 107/125/21 105/122/21 
f 103/126/38 108/127/38 106/124/38 
f 106/124/38 104/123/38 103/126/38 
f 102/128/11 109/129/11 108/130/11 
f 108/130/11 103/131/11 102/128/11 
f 101/132/12 110/133/12 109/129/12 
f 109/129/12 102/128/12 101/132/12 
f 100/134/39 111/135/39 110/136/39 
f 110/136/39 101/137/39 100/134/39 
f 99/138/3 112/139/40 111/135/3 
f 111/135/3 100/134/40 99/138/3 
f 98/140/17 113/141/41 112/139/17 
f 112/139/17 99/138/17 98/140/17 
f 98/142/42 89/101/42 88/100/42 
f 98/142/42 88/100/42 114/143/42 
f 98/142/42 114/143/42 113/144/42 
f 77/83/43 76/82/44 73/145/43 
f 73/145/43 72/146/44 77/83/43 
f 86/98/24 97/147/24 115/148/24 
f 115/148/24 87/99/24 86/98/24 
f 97/149/45 96/150/46 116/151/45 
f 116/151/45 115/152/25 97/149/45 
f 96/150/28 95/153/28 117/154/28 
f 117/154/28 116/151/28 96/150/28 
f 95/155/31 94/156/31 118/157/31 
f 118/157/31 117/158/31 95/155/31 
f 77/159/47 72/160/48 14/161/49 
f 14/161/49 17/162/49 68/163/49 
f 68/163/49 66/164/49 58/165/49 
f 14/161/49 68/163/49 58/165/49 
f 58/165/49 61/166/49 63/167/48 
f 63/167/48 62/168/49 70/169/49 
f 58/165/49 63/167/48 70/169/49 
f 70/169/49 84/170/48 82/171/50 
f 82/171/50 80/172/51 78/173/49 
f 70/169/49 82/171/50 78/173/49 
f 58/165/49 70/169/49 78/173/49 
f 14/161/49 58/165/49 78/173/49 
f 77/159/47 14/161/49 78/173/49 
f 74/174/52 77/159/47 78/173/49 
f 91/103/53 105/175/9 107/176/9 
f 107/176/9 92/104/9 91/103/53 
f 94/156/54 90/177/55 93/178/32 
f 93/178/32 118/157/32 94/156/54 
s off
f 119/179/56 21/180/56 3/181/56 
f 120/182/57 22/183/57 18/184/57 
s 1
f 19/185/58 28/186/58 36/187/58 
f 20/188/59 39/189/59 4/190/59 
f 37/191/60 8/192/60 32/193/60 
s off
f 38/194/61 35/195/61 1/196/61 
s 1
f 7/197/62 121/198/62 33/199/62 
s off
f 34/200/63 122/201/63 2/202/63 
f 120/203/64 18/204/64 21/205/64 
f 21/205/64 119/206/64 120/203/64 
f 28/207/65 19/208/65 18/209/65 
f 18/209/65 22/210/65 28/207/65 
f 20/211/66 4/212/66 3/213/66 
f 3/213/66 21/214/66 20/211/66 
f 8/215/67 37/216/67 36/217/67 
f 36/217/67 28/218/67 8/215/67 
f 38/219/68 1/220/68 4/221/68 
f 4/221/68 39/222/68 38/219/68 
f 7/223/69 33/224/69 32/225/69 
f 32/225/69 8/226/69 7/223/69 
f 34/227/70 2/228/70 1/229/70 
f 1/229/70 35/230/70 34/227/70 
s 1
f 15/231/71 6/232/72 5/233/73 
f 5/233/73 16/234/74 15/231/71 
f 64/235/75 60/236/76 10/237/77 
f 10/237/77 9/238/78 64/235/75 
f 59/239/79 11/240/79 10/237/77 
f 10/237/77 60/236/76 59/239/79 
f 67/241/80 12/242/80 11/240/79 
f 11/240/79 59/239/79 67/241/80 
f 5/233/73 13/243/81 69/244/81 
f 69/244/81 16/234/74 5/233/73 
f 9/238/78 40/245/82 65/246/83 
f 65/246/83 64/235/75 9/238/78 
f 92/247/84 41/248/85 31/249/86 
f 31/249/86 93/250/87 92/247/84 
f 92/251/84 107/252/88 42/253/88 
f 42/253/88 41/254/85 92/251/84 
f 106/255/89 43/256/89 42/253/88 
f 42/253/88 107/252/88 106/255/89 
f 108/257/79 52/258/90 43/256/89 
f 43/256/89 106/255/89 108/257/79 
f 109/259/80 51/260/80 52/258/90 
f 52/258/90 108/257/79 109/259/80 
f 110/261/81 47/262/81 51/263/80 
f 51/263/80 109/264/80 110/261/81 
f 111/265/91 46/266/91 47/262/81 
f 47/262/81 110/261/81 111/265/91 
f 112/267/92 45/268/92 46/266/91 
f 46/266/91 111/265/91 112/267/92 
f 113/269/93 44/270/93 45/268/92 
f 45/268/92 112/267/92 113/269/93 
f 113/271/93 114/272/94 23/273/94 
f 23/273/94 44/274/93 113/271/93 
f 73/275/95 48/276/96 6/232/72 
f 6/232/72 15/231/71 73/275/95 
f 73/277/95 76/278/97 49/279/97 
f 49/279/97 48/280/96 73/277/95 
f 75/281/98 50/282/98 49/279/97 
f 49/279/97 76/278/97 75/281/98 
f 79/283/99 53/284/99 50/282/98 
f 50/282/98 75/281/98 79/283/99 
f 81/285/100 54/286/100 53/284/99 
f 53/284/99 79/283/99 81/285/100 
s off
f 39/287/101 20/288/101 19/289/101 
f 19/289/101 36/290/101 39/287/101 
s 1
f 85/291/102 56/292/102 55/293/103 
f 55/293/103 83/294/103 85/291/102 
f 57/295/104 71/296/104 65/297/83 
f 65/297/83 40/298/82 57/295/104 
f 88/299/97 24/300/97 23/273/94 
f 23/273/94 114/272/94 88/299/97 
s off
f 2/301/105 122/302/105 119/303/105 
f 119/303/105 3/304/105 2/301/105 
s 1
f 115/305/99 26/306/99 25/307/98 
f 25/307/98 87/308/98 115/305/99 
f 116/309/100 27/310/100 26/306/99 
f 26/306/99 115/305/99 116/309/100 
s off
f 121/311/106 7/312/106 22/313/106 
f 22/313/106 120/314/106 121/311/106 
s 1
f 30/315/107 118/316/108 93/250/87 
f 93/250/87 31/249/86 30/315/107 
s off
f 35/317/109 38/38/109 37/37/109 
f 37/37/109 32/318/109 35/317/109 
f 122/319/110 34/320/110 33/321/110 
f 33/321/110 121/322/110 122/319/110 
s 1
f 117/323/103 118/316/108 30/315/107 
f 30/315/107 29/324/103 117/323/103 
f 83/294/103 55/293/103 54/325/100 
f 54/325/100 81/326/100 83/294/103 
f 69/244/81 13/243/81 12/327/80 
f 12/327/80 67/328/80 69/244/81 
f 71/296/104 57/295/104 56/292/102 
f 56/292/102 85/291/102 71/296/104 
f 87/308/98 25/307/98 24/300/97 
f 24/300/97 88/299/97 87/308/98 
f 117/323/103 29/324/103 27/329/100 
f 27/329/100 116/330/100 117/323/103 
f 121/331/111 120/332/111 119/333/111 
f 119/333/111 122/334/111 121/331/111 
# 240 faces

