mtllib Construction_Fence.mtl

#
# object Construction_Fence
#

v  -0.0000 168.6299 9.8486
v  -1.5199 168.0794 288.9543
v  -0.0000 168.5807 289.0237
v  -1.5199 168.1279 9.9107
v  -2.1495 166.8692 288.7867
v  -2.1495 166.9160 10.0605
v  -1.5199 165.6590 288.6193
v  -1.5199 165.7041 10.2103
v  -0.0000 165.1578 288.5500
v  -0.0000 165.2021 10.2723
v  1.5198 165.6590 288.6193
v  1.5198 165.7041 10.2103
v  2.1494 166.8692 288.7867
v  2.1494 166.9160 10.0605
v  1.5198 168.0794 288.9543
v  1.5198 168.1279 9.9107
v  -1.5199 167.1587 292.2868
v  -0.0000 167.6249 292.4833
v  -2.1495 166.0332 291.8127
v  -1.5199 164.9077 291.3387
v  -0.0000 164.4416 291.1423
v  1.5198 164.9077 291.3387
v  2.1494 166.0332 291.8127
v  1.5198 167.1587 292.2868
v  -1.5199 165.4044 295.2683
v  -0.0000 165.8036 295.5782
v  -2.1494 164.4403 294.5199
v  -1.5199 163.4762 293.7715
v  -0.0000 163.0769 293.4615
v  1.5198 163.4762 293.7715
v  2.1494 164.4403 294.5199
v  1.5198 165.4044 295.2683
v  -1.5199 162.9359 297.6954
v  -0.0000 163.2411 298.0979
v  -2.1494 162.1990 296.7236
v  -1.5199 161.4620 295.7520
v  -0.0000 161.1568 295.3496
v  1.5198 161.4620 295.7520
v  2.1494 162.1990 296.7236
v  1.5198 162.9359 297.6954
v  -1.5199 159.9216 299.4026
v  -0.0000 160.1119 299.8702
v  -2.1494 159.4620 298.2740
v  -1.5199 159.0024 297.1451
v  -0.0000 158.8120 296.6776
v  1.5198 159.0024 297.1451
v  2.1494 159.4620 298.2740
v  1.5198 159.9216 299.4026
v  -1.5199 156.5668 300.2739
v  -0.0000 156.6293 300.7747
v  -2.1494 156.4158 299.0649
v  -1.5199 156.2649 297.8561
v  -0.0000 156.2023 297.3553
v  1.5198 156.2649 297.8561
v  2.1494 156.4158 299.0649
v  1.5198 156.5668 300.2739
v  -1.5964 5.8665 300.0011
v  -0.0000 5.8861 300.6621
v  -2.2577 5.8190 298.4055
v  -1.5964 5.7716 296.8097
v  -0.0000 5.7520 296.1488
v  1.5964 5.7716 296.8098
v  2.2576 5.8190 298.4055
v  1.5964 5.8665 300.0011
v  -0.0000 6.0478 -2.2592
v  -1.5199 156.7800 -1.5136
v  -0.0000 156.8496 -2.0111
v  -1.5964 6.0418 -1.5979
v  -2.1495 156.6122 -0.3128
v  -2.2577 6.0275 -0.0016
v  -1.5199 156.4443 0.8881
v  -1.5964 6.0132 1.5947
v  -0.0000 156.3747 1.3856
v  -0.0000 6.0073 2.2559
v  1.5198 156.4443 0.8881
v  1.5964 6.0132 1.5947
v  2.1494 156.6122 -0.3128
v  2.2576 6.0275 -0.0016
v  1.5198 156.7800 -1.5136
v  1.5964 6.0418 -1.5979
v  -1.5199 160.1210 -0.6000
v  -0.0000 160.3178 -1.0626
v  -2.1495 159.6457 0.5168
v  -1.5199 159.1704 1.6336
v  -0.0000 158.9736 2.0963
v  1.5198 159.1704 1.6336
v  2.1494 159.6457 0.5168
v  1.5198 160.1210 -0.6000
v  -1.5199 163.1098 1.1409
v  -0.0000 163.4206 0.7446
v  -2.1495 162.3595 2.0975
v  -1.5199 161.6093 3.0542
v  -0.0000 161.2985 3.4505
v  1.5198 161.6093 3.0542
v  2.1494 162.3595 2.0975
v  1.5198 163.1098 1.1409
v  -1.5199 165.5429 3.5904
v  -0.0000 165.9464 3.2875
v  -2.1495 164.5688 4.3217
v  -1.5199 163.5947 5.0530
v  -0.0000 163.1912 5.3559
v  1.5198 163.5947 5.0530
v  2.1494 164.5688 4.3217
v  1.5198 165.5429 3.5904
v  -1.5199 167.2545 6.5816
v  -0.0000 167.7232 6.3927
v  -2.1495 166.1229 7.0377
v  -1.5199 164.9914 7.4938
v  -0.0000 164.5227 7.6827
v  1.5198 164.9914 7.4938
v  2.1494 166.1229 7.0377
v  1.5198 167.2545 6.5816
v  -0.0097 17.5532 15.5485
v  0.9903 166.9292 14.5485
v  -0.0097 166.9292 15.5485
v  0.9903 17.5532 14.5485
v  -0.0097 166.9292 13.5485
v  -0.0097 17.5532 13.5485
v  -1.0097 166.9292 14.5485
v  -1.0097 17.5532 14.5485
v  -0.0097 17.5532 30.4719
v  0.9903 166.9292 29.4719
v  -0.0097 166.9292 30.4719
v  0.9903 17.5532 29.4719
v  -0.0097 166.9292 28.4719
v  -0.0097 17.5532 28.4719
v  -1.0097 166.9292 29.4719
v  -1.0097 17.5532 29.4719
v  -0.0097 17.5532 45.9067
v  0.9903 166.9292 44.9067
v  -0.0097 166.9292 45.9067
v  0.9903 17.5532 44.9067
v  -0.0097 166.9292 43.9067
v  -0.0097 17.5532 43.9067
v  -1.0097 166.9292 44.9067
v  -1.0097 17.5532 44.9067
v  -0.0097 17.5532 60.3934
v  0.9903 166.9292 59.3934
v  -0.0097 166.9292 60.3934
v  0.9903 17.5532 59.3934
v  -0.0097 166.9292 58.3934
v  -0.0097 17.5533 58.3934
v  -1.0097 166.9292 59.3934
v  -1.0097 17.5532 59.3934
v  -0.0097 17.5532 76.0875
v  0.9903 166.9292 75.0875
v  -0.0097 166.9292 76.0875
v  0.9903 17.5532 75.0875
v  -0.0097 166.9292 74.0875
v  -0.0097 17.5532 74.0875
v  -1.0097 166.9292 75.0875
v  -1.0097 17.5532 75.0875
v  -0.0097 17.5532 90.7956
v  0.9903 166.9292 89.7956
v  -0.0097 166.9292 90.7956
v  0.9903 17.5532 89.7956
v  -0.0097 166.9292 88.7956
v  -0.0097 17.5532 88.7956
v  -1.0097 166.9292 89.7956
v  -1.0097 17.5532 89.7956
v  -0.0097 17.5532 105.3646
v  0.9903 166.9292 104.3646
v  -0.0097 166.9292 105.3646
v  0.9903 17.5532 104.3646
v  -0.0097 166.9292 103.3646
v  -0.0097 17.5532 103.3646
v  -1.0097 166.9292 104.3646
v  -1.0097 17.5532 104.3646
v  -0.0097 17.5532 120.4983
v  0.9903 166.9292 119.4983
v  -0.0097 166.9292 120.4983
v  0.9903 17.5532 119.4983
v  -0.0097 166.9292 118.4983
v  -0.0097 17.5532 118.4983
v  -1.0097 166.9292 119.4983
v  -1.0097 17.5532 119.4983
v  -0.0097 17.5533 150.8093
v  0.9903 166.9292 149.8092
v  -0.0097 166.9292 150.8093
v  0.9903 17.5532 149.8092
v  -0.0097 166.9292 148.8092
v  -0.0097 17.5532 148.8092
v  -1.0097 166.9292 149.8092
v  -1.0097 17.5532 149.8092
v  -0.0097 17.5532 165.4552
v  0.9903 166.9292 164.4552
v  -0.0097 166.9292 165.4552
v  0.9903 17.5533 164.4552
v  -0.0097 166.9292 163.4552
v  -0.0097 17.5532 163.4552
v  -1.0097 166.9292 164.4552
v  -1.0097 17.5533 164.4552
v  -0.0097 17.5532 135.7026
v  0.9903 166.9292 134.7025
v  -0.0097 166.9292 135.7026
v  0.9903 17.5532 134.7025
v  -0.0097 166.9292 133.7025
v  -0.0097 17.5532 133.7026
v  -1.0097 166.9292 134.7025
v  -1.0097 17.5532 134.7025
v  -0.0097 17.5533 180.7168
v  0.9903 166.9292 179.7168
v  -0.0097 166.9292 180.7168
v  0.9903 17.5532 179.7168
v  -0.0097 166.9292 178.7168
v  -0.0097 17.5533 178.7168
v  -1.0097 166.9292 179.7168
v  -1.0097 17.5532 179.7168
v  -0.0097 17.5533 196.0390
v  0.9903 166.9292 195.0390
v  -0.0097 166.9292 196.0390
v  0.9903 17.5532 195.0390
v  -0.0097 166.9292 194.0390
v  -0.0097 17.5532 194.0390
v  -1.0097 166.9292 195.0390
v  -1.0097 17.5532 195.0390
v  -0.0097 17.5533 210.2799
v  0.9903 166.9292 209.2799
v  -0.0097 166.9292 210.2799
v  0.9903 17.5532 209.2799
v  -0.0097 166.9292 208.2799
v  -0.0097 17.5532 208.2799
v  -1.0097 166.9292 209.2799
v  -1.0097 17.5532 209.2799
v  -0.0097 17.5532 225.5429
v  0.9903 166.9292 224.5429
v  -0.0097 166.9292 225.5430
v  0.9903 17.5532 224.5429
v  -0.0097 166.9292 223.5429
v  -0.0097 17.5532 223.5429
v  -1.0097 166.9292 224.5429
v  -1.0097 17.5532 224.5429
v  -0.0097 17.5533 240.5170
v  0.9903 166.9292 239.5170
v  -0.0097 166.9292 240.5170
v  0.9903 17.5533 239.5170
v  -0.0097 166.9292 238.5170
v  -0.0097 17.5532 238.5170
v  -1.0097 166.9292 239.5170
v  -1.0097 17.5533 239.5170
v  -0.0097 17.5532 256.1066
v  0.9903 166.9292 255.1066
v  -0.0097 166.9292 256.1066
v  0.9903 17.5532 255.1066
v  -0.0097 166.9292 254.1066
v  -0.0097 17.5532 254.1066
v  -1.0097 166.9292 255.1066
v  -1.0097 17.5532 255.1066
v  -0.0097 17.5533 270.8310
v  0.9903 166.9292 269.8310
v  -0.0097 166.9292 270.8310
v  0.9903 17.5532 269.8310
v  -0.0097 166.9292 268.8310
v  -0.0097 17.5532 268.8310
v  -1.0097 166.9292 269.8310
v  -1.0097 17.5532 269.8310
v  -0.0097 17.5532 284.6620
v  0.9903 166.9292 283.6620
v  -0.0097 166.9292 284.6620
v  0.9903 17.5532 283.6620
v  -0.0097 166.9292 282.6620
v  -0.0097 17.5532 282.6620
v  -1.0097 166.9292 283.6620
v  -1.0097 17.5532 283.6620
v  -0.0000 19.2360 0.1833
v  -1.5199 18.6854 298.9924
v  -0.0000 19.1867 299.0619
v  -1.5199 18.7339 0.2454
v  -2.1494 17.4753 298.8249
v  -2.1494 17.5220 0.3952
v  -1.5199 16.2651 298.6575
v  -1.5199 16.3101 0.5450
v  -0.0000 15.7638 298.5881
v  -0.0000 15.8081 0.6070
v  1.5198 16.2651 298.6575
v  1.5198 16.3101 0.5450
v  2.1494 17.4753 298.8249
v  2.1494 17.5220 0.3952
v  1.5198 18.6854 298.9924
v  1.5198 18.7339 0.2454
v  -0.0000 97.1970 0.1833
v  -1.5199 96.6464 298.9924
v  -0.0000 97.1477 299.0619
v  -1.5199 96.6949 0.2454
v  -2.1494 95.4363 298.8249
v  -2.1494 95.4830 0.3952
v  -1.5199 94.2261 298.6575
v  -1.5199 94.2711 0.5450
v  -0.0000 93.7248 298.5881
v  -0.0000 93.7691 0.6070
v  1.5198 94.2261 298.6575
v  1.5198 94.2711 0.5450
v  2.1494 95.4363 298.8249
v  2.1494 95.4830 0.3952
v  1.5198 96.6464 298.9924
v  1.5198 96.6949 0.2454
# 296 vertices

vn 0.0000 0.9918 -0.1277
vn -0.6349 0.7655 0.1039
vn -0.0000 0.9909 0.1345
vn -0.6355 0.7657 -0.0987
vn -0.9992 0.0389 0.0052
vn -0.9993 0.0371 -0.0050
vn -0.6669 -0.7384 -0.1002
vn -0.6659 -0.7399 0.0954
vn -0.0000 -0.9909 -0.1344
vn 0.0000 -0.9918 0.1280
vn 0.6669 -0.7384 -0.1002
vn 0.6659 -0.7399 0.0954
vn 0.9992 0.0389 0.0052
vn 0.9993 0.0371 -0.0050
vn 0.6349 0.7655 0.1039
vn 0.6355 0.7657 -0.0987
vn -0.6352 0.7111 0.3012
vn 0.0000 0.9208 0.3900
vn -0.9993 0.0352 0.0150
vn -0.6663 -0.6866 -0.2909
vn -0.0000 -0.9208 -0.3901
vn 0.6663 -0.6866 -0.2909
vn 0.9993 0.0352 0.0150
vn 0.6352 0.7111 0.3013
vn -0.6351 0.6089 0.4754
vn 0.0000 0.7883 0.6153
vn -0.9993 0.0300 0.0236
vn -0.6661 -0.5879 -0.4590
vn -0.0000 -0.7882 -0.6154
vn 0.6661 -0.5879 -0.4590
vn 0.9993 0.0300 0.0236
vn 0.6351 0.6089 0.4753
vn -0.6349 0.4652 0.6168
vn -0.0000 0.6022 0.7984
vn -0.9993 0.0229 0.0305
vn -0.6659 -0.4492 -0.5957
vn 0.0000 -0.6021 -0.7985
vn 0.6659 -0.4492 -0.5957
vn 0.9993 0.0229 0.0305
vn 0.6349 0.4652 0.6168
vn -0.6347 0.2900 0.7162
vn -0.0000 0.3753 0.9269
vn -0.9993 0.0142 0.0354
vn -0.6657 -0.2801 -0.6917
vn 0.0000 -0.3752 -0.9269
vn 0.6657 -0.2800 -0.6917
vn 0.9993 0.0143 0.0354
vn 0.6347 0.2900 0.7162
vn -0.6351 0.0971 0.7663
vn -0.0001 0.1261 0.9920
vn -0.9993 0.0053 0.0375
vn -0.6656 -0.0916 -0.7406
vn 0.0001 -0.1229 -0.9924
vn 0.6657 -0.0921 -0.7406
vn 0.9993 0.0054 0.0372
vn 0.6350 0.0976 0.7663
vn -0.7107 -0.0005 0.7035
vn -0.0003 -0.0012 1.0000
vn -1.0000 0.0012 -0.0081
vn -0.7023 0.0049 -0.7119
vn 0.0003 0.0076 -1.0000
vn 0.7023 0.0057 -0.7119
vn 1.0000 0.0012 -0.0086
vn 0.7107 -0.0013 0.7035
vn 0.0003 0.0012 -1.0000
vn -0.6332 0.1036 -0.7670
vn 0.0001 0.1338 -0.9910
vn -0.7080 0.0003 -0.7062
vn -0.9992 0.0056 -0.0389
vn -1.0000 0.0012 0.0030
vn -0.6650 -0.0977 0.7404
vn -0.7053 0.0041 0.7089
vn -0.0001 -0.1302 0.9915
vn -0.0003 0.0054 1.0000
vn 0.6650 -0.0972 0.7405
vn 0.7053 0.0033 0.7089
vn 0.9992 0.0056 -0.0392
vn 1.0000 0.0012 0.0024
vn 0.6332 0.1031 -0.7671
vn 0.7080 0.0012 -0.7062
vn -0.6337 0.2992 -0.7134
vn 0.0000 0.3869 -0.9221
vn -0.9993 0.0146 -0.0352
vn -0.6645 -0.2890 0.6891
vn 0.0000 -0.3867 0.9222
vn 0.6645 -0.2890 0.6891
vn 0.9993 0.0146 -0.0352
vn 0.6337 0.2992 -0.7134
vn -0.6341 0.4729 -0.6118
vn -0.0000 0.6117 -0.7911
vn -0.9993 0.0232 -0.0304
vn -0.6650 -0.4567 0.5909
vn 0.0000 -0.6115 0.7913
vn 0.6650 -0.4567 0.5909
vn 0.9993 0.0231 -0.0304
vn 0.6341 0.4729 -0.6118
vn -0.6345 0.6149 -0.4683
vn -0.0000 0.7957 -0.6058
vn -0.9993 0.0303 -0.0234
vn -0.6656 -0.5937 0.4522
vn -0.0000 -0.7954 0.6060
vn 0.6656 -0.5937 0.4522
vn 0.9993 0.0303 -0.0234
vn 0.6345 0.6149 -0.4683
vn -0.6349 0.7151 -0.2924
vn -0.0000 0.9257 -0.3784
vn -0.9993 0.0354 -0.0147
vn -0.6661 -0.6904 0.2823
vn -0.0000 -0.9256 0.3786
vn 0.6661 -0.6904 0.2823
vn 0.9993 0.0354 -0.0147
vn 0.6349 0.7151 -0.2924
vn 0.0000 -0.0000 1.0000
vn 1.0000 -0.0000 -0.0000
vn -0.0000 -0.0000 1.0000
vn -0.0000 0.0000 -1.0000
vn 0.0000 -0.0000 -1.0000
vn -1.0000 -0.0000 -0.0000
vn 0.0000 0.0000 1.0000
vn 1.0000 -0.0000 0.0000
vn 1.0000 0.0000 -0.0000
vn 0.0000 0.0000 -1.0000
vn -1.0000 -0.0000 0.0000
vn -1.0000 0.0000 0.0000
vn -0.0000 -0.0000 -1.0000
vn -1.0000 0.0000 -0.0000
vn 1.0000 0.0000 0.0000
vn -0.0000 0.0000 1.0000
vn -0.0000 1.0000 0.0002
vn -0.6310 0.7757 0.0001
vn 0.0000 1.0000 0.0002
vn -0.6332 0.7740 0.0001
vn -0.9992 0.0404 0.0000
vn -0.9993 0.0362 0.0000
vn -0.6637 -0.7480 -0.0001
vn -0.6625 -0.7491 -0.0001
vn -0.0000 -1.0000 -0.0001
vn 0.6637 -0.7480 -0.0001
vn 0.6625 -0.7491 -0.0001
vn 0.9992 0.0404 0.0000
vn 0.9993 0.0362 0.0000
vn 0.6310 0.7757 0.0001
vn 0.6332 0.7740 0.0001
# 143 vertex normals

vt 0.8667 0.8945 0.7394
vt 0.8559 0.0106 0.9402
vt 0.8667 0.0104 0.8536
vt 0.8546 0.8943 0.8690
vt 0.8475 0.0111 1.0007
vt 0.8460 0.8938 1.0006
vt 0.8389 0.0117 0.8681
vt 0.8376 0.8933 0.9401
vt 0.8268 0.0119 0.7376
vt 0.8268 0.8931 0.8535
vt 0.9066 0.8931 0.8535
vt 0.8945 0.0117 0.8681
vt 0.9066 0.0119 0.7376
vt 0.8958 0.8933 0.9401
vt 0.8859 0.0111 1.0007
vt 0.8874 0.8938 1.0006
vt 0.8775 0.0106 0.9402
vt 0.8787 0.8943 0.8690
vt 0.2825 0.7007 0.0000
vt 0.3047 0.7377 0.0000
vt 0.2825 0.7377 0.0000
vt 0.3047 0.7007 0.0000
vt 0.3270 0.7377 0.0000
vt 0.3270 0.7007 0.0000
vt 0.3492 0.7377 0.0000
vt 0.3492 0.7007 0.0000
vt 0.3714 0.7377 0.0000
vt 0.3714 0.7007 0.0000
vt 0.3937 0.7377 0.0000
vt 0.3937 0.7007 0.0000
vt 0.2158 0.7007 0.0000
vt 0.2380 0.7377 0.0000
vt 0.2158 0.7377 0.0000
vt 0.2380 0.7007 0.0000
vt 0.2603 0.7377 0.0000
vt 0.2603 0.7007 0.0000
vt 0.3047 0.7747 0.0000
vt 0.2825 0.7747 0.0000
vt 0.3270 0.7747 0.0000
vt 0.3492 0.7747 0.0000
vt 0.3714 0.7747 0.0000
vt 0.3937 0.7747 0.0000
vt 0.2380 0.7747 0.0000
vt 0.2158 0.7747 0.0000
vt 0.2603 0.7747 0.0000
vt 0.3047 0.8118 0.0000
vt 0.2825 0.8118 0.0000
vt 0.3270 0.8118 0.0000
vt 0.3492 0.8118 0.0000
vt 0.3714 0.8118 0.0000
vt 0.3937 0.8118 0.0000
vt 0.2380 0.8118 0.0000
vt 0.2158 0.8118 0.0000
vt 0.2603 0.8118 0.0000
vt 0.3047 0.8488 0.0000
vt 0.2825 0.8488 0.0000
vt 0.3270 0.8488 0.0000
vt 0.3492 0.8488 0.0000
vt 0.3714 0.8488 0.0000
vt 0.3937 0.8488 0.0000
vt 0.2380 0.8488 0.0000
vt 0.2158 0.8488 0.0000
vt 0.2603 0.8488 0.0000
vt 0.3047 0.8858 0.0000
vt 0.2825 0.8858 0.0000
vt 0.3270 0.8858 0.0000
vt 0.3492 0.8858 0.0000
vt 0.3714 0.8858 0.0000
vt 0.3937 0.8858 0.0000
vt 0.2380 0.8858 0.0000
vt 0.2158 0.8858 0.0000
vt 0.2603 0.8858 0.0000
vt 0.8079 0.8558 0.9990
vt 0.8013 0.0123 0.7414
vt 0.8079 0.0124 0.6874
vt 0.8036 0.8555 0.9907
vt 0.7955 0.0120 0.8577
vt 0.7997 0.8547 0.8800
vt 0.7904 0.0118 0.9598
vt 0.7956 0.8539 0.5752
vt 0.7856 0.0117 0.9990
vt 0.7856 0.8535 0.2792
vt 0.7809 0.0118 0.9598
vt 0.7757 0.8539 0.5752
vt 0.7758 0.0120 0.8577
vt 0.7715 0.8547 0.8800
vt 0.7700 0.0123 0.7414
vt 0.8160 0.8547 0.8800
vt 0.8122 0.8555 0.9907
vt 0.8145 0.0123 0.7414
vt 0.7347 0.0095 0.9142
vt 0.7412 0.8583 0.5396
vt 0.7314 0.8587 0.5188
vt 0.7402 0.0095 0.9951
vt 0.7474 0.8573 0.7456
vt 0.7455 0.0094 1.0374
vt 0.7526 0.8563 0.8365
vt 0.7506 0.0092 1.0215
vt 0.7582 0.8559 0.9196
vt 0.7560 0.0092 0.9545
vt 0.7100 0.0092 0.9545
vt 0.7170 0.8563 1.0568
vt 0.7121 0.8559 0.9196
vt 0.7158 0.0092 0.8700
vt 0.7209 0.8572 1.0709
vt 0.7221 0.0093 0.8192
vt 0.7248 0.8582 0.8425
vt 0.7286 0.0094 0.8389
vt 0.0872 0.6984 0.0000
vt 0.1095 0.7359 0.0000
vt 0.0872 0.7359 0.0000
vt 0.1095 0.6984 0.0000
vt 0.1318 0.7359 0.0000
vt 0.1318 0.6984 0.0000
vt 0.1541 0.7359 0.0000
vt 0.1541 0.6984 0.0000
vt 0.1764 0.7359 0.0000
vt 0.1764 0.6984 0.0000
vt 0.1987 0.7359 0.0000
vt 0.1987 0.6984 0.0000
vt 0.0203 0.6984 0.0000
vt 0.0426 0.7359 0.0000
vt 0.0203 0.7359 0.0000
vt 0.0426 0.6984 0.0000
vt 0.0649 0.7359 0.0000
vt 0.0649 0.6984 0.0000
vt 0.1095 0.7735 0.0000
vt 0.0872 0.7735 0.0000
vt 0.1318 0.7735 0.0000
vt 0.1541 0.7735 0.0000
vt 0.1764 0.7735 0.0000
vt 0.1987 0.7735 0.0000
vt 0.0426 0.7735 0.0000
vt 0.0203 0.7735 0.0000
vt 0.0649 0.7735 0.0000
vt 0.1095 0.8110 0.0000
vt 0.0872 0.8110 0.0000
vt 0.1318 0.8110 0.0000
vt 0.1541 0.8110 0.0000
vt 0.1764 0.8110 0.0000
vt 0.1987 0.8110 0.0000
vt 0.0426 0.8110 0.0000
vt 0.0203 0.8110 0.0000
vt 0.0649 0.8110 0.0000
vt 0.1095 0.8486 0.0000
vt 0.0872 0.8486 0.0000
vt 0.1318 0.8486 0.0000
vt 0.1541 0.8486 0.0000
vt 0.1764 0.8486 0.0000
vt 0.1987 0.8486 0.0000
vt 0.0426 0.8486 0.0000
vt 0.0203 0.8486 0.0000
vt 0.0649 0.8486 0.0000
vt 0.1095 0.8861 0.0000
vt 0.0872 0.8861 0.0000
vt 0.1318 0.8861 0.0000
vt 0.1541 0.8861 0.0000
vt 0.1764 0.8861 0.0000
vt 0.1987 0.8861 0.0000
vt 0.0426 0.8861 0.0000
vt 0.0203 0.8861 0.0000
vt 0.0649 0.8861 0.0000
vt 0.8002 0.9774 0.9990
vt 0.0166 0.9797 0.9990
vt 0.0166 0.9774 0.9990
vt 0.8002 0.9797 0.9990
vt 0.8002 0.9705 0.9990
vt 0.0166 0.9728 0.9990
vt 0.0166 0.9705 0.9990
vt 0.8002 0.9728 0.9990
vt 0.0166 0.9751 0.9990
vt 0.8002 0.9751 0.9990
vt 0.7988 0.9636 0.9990
vt 0.0153 0.9659 0.9990
vt 0.0153 0.9636 0.9990
vt 0.7988 0.9659 0.9990
vt 0.7988 0.9566 0.9990
vt 0.0153 0.9589 0.9990
vt 0.0153 0.9566 0.9990
vt 0.7988 0.9589 0.9990
vt 0.0153 0.9612 0.9990
vt 0.7988 0.9612 0.9990
vt 0.7982 0.9492 0.9990
vt 0.0147 0.9516 0.9990
vt 0.0147 0.9492 0.9990
vt 0.7982 0.9516 0.9990
vt 0.7982 0.9423 0.9990
vt 0.0147 0.9446 0.9990
vt 0.0147 0.9423 0.9990
vt 0.7982 0.9446 0.9990
vt 0.0147 0.9469 0.9990
vt 0.7982 0.9469 0.9990
vt 0.7982 0.9357 0.9990
vt 0.0147 0.9380 0.9990
vt 0.0147 0.9357 0.9990
vt 0.7982 0.9380 0.9990
vt 0.7982 0.9287 0.9990
vt 0.0147 0.9310 0.9990
vt 0.0147 0.9287 0.9990
vt 0.7982 0.9310 0.9990
vt 0.0147 0.9334 0.9990
vt 0.7982 0.9334 0.9990
vt 0.7982 0.9184 0.9990
vt 0.0147 0.9207 0.9990
vt 0.0147 0.9184 0.9990
vt 0.7982 0.9207 0.9990
vt 0.7982 0.9114 0.9990
vt 0.0147 0.9138 0.9990
vt 0.0147 0.9114 0.9990
vt 0.7982 0.9138 0.9990
vt 0.0147 0.9161 0.9990
vt 0.7982 0.9161 0.9990
vt 0.7973 0.9038 0.9990
vt 0.0137 0.9061 0.9990
vt 0.0137 0.9038 0.9990
vt 0.7973 0.9061 0.9990
vt 0.7973 0.8968 0.9990
vt 0.0137 0.8992 0.9990
vt 0.0137 0.8968 0.9990
vt 0.7973 0.8992 0.9990
vt 0.0137 0.9015 0.9990
vt 0.7973 0.9015 0.9990
vt 0.9793 0.9960 0.6746
vt 0.9746 0.0036 0.9841
vt 0.9793 0.0034 0.9182
vt 0.9734 0.9958 0.8329
vt 0.9708 0.0042 1.0065
vt 0.9693 0.9953 1.0064
vt 0.9668 0.0048 0.8323
vt 0.9655 0.9948 0.9839
vt 0.9608 0.0050 0.6731
vt 0.9608 0.9946 0.9182
vt 0.9979 0.9946 0.9182
vt 0.9919 0.0048 0.8323
vt 0.9979 0.0050 0.6731
vt 0.9932 0.9948 0.9839
vt 0.9879 0.0042 1.0065
vt 0.9893 0.9953 1.0064
vt 0.9841 0.0036 0.9841
vt 0.9853 0.9958 0.8329
vt 0.9341 0.9960 0.6746
vt 0.9293 0.0036 0.9841
vt 0.9341 0.0034 0.9182
vt 0.9281 0.9958 0.8329
vt 0.9255 0.0042 1.0065
vt 0.9241 0.9953 1.0064
vt 0.9215 0.0048 0.8323
vt 0.9202 0.9948 0.9839
vt 0.9155 0.0050 0.6731
vt 0.9155 0.9946 0.9182
vt 0.9526 0.9946 0.9182
vt 0.9466 0.0048 0.8323
vt 0.9526 0.0050 0.6731
vt 0.9479 0.9948 0.9839
vt 0.9426 0.0042 1.0065
vt 0.9441 0.9953 1.0064
vt 0.9388 0.0036 0.9841
vt 0.9400 0.9958 0.8329
# 258 texture coords

g Construction_Fence
usemtl Material__25
s 1
f 1/1/1 2/2/2 3/3/3 
f 1/1/1 4/4/4 2/2/2 
f 4/4/4 5/5/5 2/2/2 
f 4/4/4 6/6/6 5/5/5 
f 6/6/6 7/7/7 5/5/5 
f 6/6/6 8/8/8 7/7/7 
f 8/8/8 9/9/9 7/7/7 
f 8/8/8 10/10/10 9/9/9 
f 10/11/10 11/12/11 9/13/9 
f 10/11/10 12/14/12 11/12/11 
f 12/14/12 13/15/13 11/12/11 
f 12/14/12 14/16/14 13/15/13 
f 14/16/14 15/17/15 13/15/13 
f 14/16/14 16/18/16 15/17/15 
f 16/18/16 3/3/3 15/17/15 
f 16/18/16 1/1/1 3/3/3 
f 3/19/3 17/20/17 18/21/18 
f 3/19/3 2/22/2 17/20/17 
f 2/22/2 19/23/19 17/20/17 
f 2/22/2 5/24/5 19/23/19 
f 5/24/5 20/25/20 19/23/19 
f 5/24/5 7/26/7 20/25/20 
f 7/26/7 21/27/21 20/25/20 
f 7/26/7 9/28/9 21/27/21 
f 9/28/9 22/29/22 21/27/21 
f 9/28/9 11/30/11 22/29/22 
f 11/31/11 23/32/23 22/33/22 
f 11/31/11 13/34/13 23/32/23 
f 13/34/13 24/35/24 23/32/23 
f 13/34/13 15/36/15 24/35/24 
f 15/36/15 18/21/18 24/35/24 
f 15/36/15 3/19/3 18/21/18 
f 18/21/18 25/37/25 26/38/26 
f 18/21/18 17/20/17 25/37/25 
f 17/20/17 27/39/27 25/37/25 
f 17/20/17 19/23/19 27/39/27 
f 19/23/19 28/40/28 27/39/27 
f 19/23/19 20/25/20 28/40/28 
f 20/25/20 29/41/29 28/40/28 
f 20/25/20 21/27/21 29/41/29 
f 21/27/21 30/42/30 29/41/29 
f 21/27/21 22/29/22 30/42/30 
f 22/33/22 31/43/31 30/44/30 
f 22/33/22 23/32/23 31/43/31 
f 23/32/23 32/45/32 31/43/31 
f 23/32/23 24/35/24 32/45/32 
f 24/35/24 26/38/26 32/45/32 
f 24/35/24 18/21/18 26/38/26 
f 26/38/26 33/46/33 34/47/34 
f 26/38/26 25/37/25 33/46/33 
f 25/37/25 35/48/35 33/46/33 
f 25/37/25 27/39/27 35/48/35 
f 27/39/27 36/49/36 35/48/35 
f 27/39/27 28/40/28 36/49/36 
f 28/40/28 37/50/37 36/49/36 
f 28/40/28 29/41/29 37/50/37 
f 29/41/29 38/51/38 37/50/37 
f 29/41/29 30/42/30 38/51/38 
f 30/44/30 39/52/39 38/53/38 
f 30/44/30 31/43/31 39/52/39 
f 31/43/31 40/54/40 39/52/39 
f 31/43/31 32/45/32 40/54/40 
f 32/45/32 34/47/34 40/54/40 
f 32/45/32 26/38/26 34/47/34 
f 34/47/34 41/55/41 42/56/42 
f 34/47/34 33/46/33 41/55/41 
f 33/46/33 43/57/43 41/55/41 
f 33/46/33 35/48/35 43/57/43 
f 35/48/35 44/58/44 43/57/43 
f 35/48/35 36/49/36 44/58/44 
f 36/49/36 45/59/45 44/58/44 
f 36/49/36 37/50/37 45/59/45 
f 37/50/37 46/60/46 45/59/45 
f 37/50/37 38/51/38 46/60/46 
f 38/53/38 47/61/47 46/62/46 
f 38/53/38 39/52/39 47/61/47 
f 39/52/39 48/63/48 47/61/47 
f 39/52/39 40/54/40 48/63/48 
f 40/54/40 42/56/42 48/63/48 
f 40/54/40 34/47/34 42/56/42 
f 42/56/42 49/64/49 50/65/50 
f 42/56/42 41/55/41 49/64/49 
f 41/55/41 51/66/51 49/64/49 
f 41/55/41 43/57/43 51/66/51 
f 43/57/43 52/67/52 51/66/51 
f 43/57/43 44/58/44 52/67/52 
f 44/58/44 53/68/53 52/67/52 
f 44/58/44 45/59/45 53/68/53 
f 45/59/45 54/69/54 53/68/53 
f 45/59/45 46/60/46 54/69/54 
f 46/62/46 55/70/55 54/71/54 
f 46/62/46 47/61/47 55/70/55 
f 47/61/47 56/72/56 55/70/55 
f 47/61/47 48/63/48 56/72/56 
f 48/63/48 50/65/50 56/72/56 
f 48/63/48 42/56/42 50/65/50 
f 50/73/50 57/74/57 58/75/58 
f 50/73/50 49/76/49 57/74/57 
f 49/76/49 59/77/59 57/74/57 
f 49/76/49 51/78/51 59/77/59 
f 51/78/51 60/79/60 59/77/59 
f 51/78/51 52/80/52 60/79/60 
f 52/80/52 61/81/61 60/79/60 
f 52/80/52 53/82/53 61/81/61 
f 53/82/53 62/83/62 61/81/61 
f 53/82/53 54/84/54 62/83/62 
f 54/84/54 63/85/63 62/83/62 
f 54/84/54 55/86/55 63/85/63 
f 55/86/55 64/87/64 63/85/63 
f 55/88/55 56/89/56 64/90/64 
f 56/89/56 58/75/58 64/90/64 
f 56/89/56 50/73/50 58/75/58 
f 65/91/65 66/92/66 67/93/67 
f 65/91/65 68/94/68 66/92/66 
f 68/94/68 69/95/69 66/92/66 
f 68/94/68 70/96/70 69/95/69 
f 70/96/70 71/97/71 69/95/69 
f 70/96/70 72/98/72 71/97/71 
f 72/98/72 73/99/73 71/97/71 
f 72/98/72 74/100/74 73/99/73 
f 74/101/74 75/102/75 73/103/73 
f 74/101/74 76/104/76 75/102/75 
f 76/104/76 77/105/77 75/102/75 
f 76/104/76 78/106/78 77/105/77 
f 78/106/78 79/107/79 77/105/77 
f 78/106/78 80/108/80 79/107/79 
f 80/108/80 67/93/67 79/107/79 
f 80/108/80 65/91/65 67/93/67 
f 67/109/67 81/110/81 82/111/82 
f 67/109/67 66/112/66 81/110/81 
f 66/112/66 83/113/83 81/110/81 
f 66/112/66 69/114/69 83/113/83 
f 69/114/69 84/115/84 83/113/83 
f 69/114/69 71/116/71 84/115/84 
f 71/116/71 85/117/85 84/115/84 
f 71/116/71 73/118/73 85/117/85 
f 73/118/73 86/119/86 85/117/85 
f 73/118/73 75/120/75 86/119/86 
f 75/121/75 87/122/87 86/123/86 
f 75/121/75 77/124/77 87/122/87 
f 77/124/77 88/125/88 87/122/87 
f 77/124/77 79/126/79 88/125/88 
f 79/126/79 82/111/82 88/125/88 
f 79/126/79 67/109/67 82/111/82 
f 82/111/82 89/127/89 90/128/90 
f 82/111/82 81/110/81 89/127/89 
f 81/110/81 91/129/91 89/127/89 
f 81/110/81 83/113/83 91/129/91 
f 83/113/83 92/130/92 91/129/91 
f 83/113/83 84/115/84 92/130/92 
f 84/115/84 93/131/93 92/130/92 
f 84/115/84 85/117/85 93/131/93 
f 85/117/85 94/132/94 93/131/93 
f 85/117/85 86/119/86 94/132/94 
f 86/123/86 95/133/95 94/134/94 
f 86/123/86 87/122/87 95/133/95 
f 87/122/87 96/135/96 95/133/95 
f 87/122/87 88/125/88 96/135/96 
f 88/125/88 90/128/90 96/135/96 
f 88/125/88 82/111/82 90/128/90 
f 90/128/90 97/136/97 98/137/98 
f 90/128/90 89/127/89 97/136/97 
f 89/127/89 99/138/99 97/136/97 
f 89/127/89 91/129/91 99/138/99 
f 91/129/91 100/139/100 99/138/99 
f 91/129/91 92/130/92 100/139/100 
f 92/130/92 101/140/101 100/139/100 
f 92/130/92 93/131/93 101/140/101 
f 93/131/93 102/141/102 101/140/101 
f 93/131/93 94/132/94 102/141/102 
f 94/134/94 103/142/103 102/143/102 
f 94/134/94 95/133/95 103/142/103 
f 95/133/95 104/144/104 103/142/103 
f 95/133/95 96/135/96 104/144/104 
f 96/135/96 98/137/98 104/144/104 
f 96/135/96 90/128/90 98/137/98 
f 98/137/98 105/145/105 106/146/106 
f 98/137/98 97/136/97 105/145/105 
f 97/136/97 107/147/107 105/145/105 
f 97/136/97 99/138/99 107/147/107 
f 99/138/99 108/148/108 107/147/107 
f 99/138/99 100/139/100 108/148/108 
f 100/139/100 109/149/109 108/148/108 
f 100/139/100 101/140/101 109/149/109 
f 101/140/101 110/150/110 109/149/109 
f 101/140/101 102/141/102 110/150/110 
f 102/143/102 111/151/111 110/152/110 
f 102/143/102 103/142/103 111/151/111 
f 103/142/103 112/153/112 111/151/111 
f 103/142/103 104/144/104 112/153/112 
f 104/144/104 106/146/106 112/153/112 
f 104/144/104 98/137/98 106/146/106 
f 106/146/106 4/154/4 1/155/1 
f 106/146/106 105/145/105 4/154/4 
f 105/145/105 6/156/6 4/154/4 
f 105/145/105 107/147/107 6/156/6 
f 107/147/107 8/157/8 6/156/6 
f 107/147/107 108/148/108 8/157/8 
f 108/148/108 10/158/10 8/157/8 
f 108/148/108 109/149/109 10/158/10 
f 109/149/109 12/159/12 10/158/10 
f 109/149/109 110/150/110 12/159/12 
f 110/152/110 14/160/14 12/161/12 
f 110/152/110 111/151/111 14/160/14 
f 111/151/111 16/162/16 14/160/14 
f 111/151/111 112/153/112 16/162/16 
f 112/153/112 1/155/1 16/162/16 
f 112/153/112 106/146/106 1/155/1 
s 8
f 113/163/113 114/164/114 115/165/115 
f 113/163/113 116/166/114 114/164/114 
f 116/167/114 117/168/116 114/169/114 
f 116/167/114 118/170/117 117/168/116 
f 118/170/117 119/171/118 117/168/116 
f 118/170/117 120/172/118 119/171/118 
f 120/172/118 115/165/115 119/171/118 
f 120/172/118 113/163/113 115/165/115 
f 121/163/119 122/164/120 123/165/115 
f 121/163/119 124/166/121 122/164/120 
f 124/167/121 125/168/116 122/169/120 
f 124/167/121 126/170/122 125/168/116 
f 126/170/122 127/171/123 125/168/116 
f 126/170/122 128/172/124 127/171/123 
f 128/172/124 123/165/115 127/171/123 
f 128/172/124 121/163/119 123/165/115 
f 129/173/119 130/174/114 131/175/115 
f 129/173/119 132/176/121 130/174/114 
f 132/177/121 133/178/125 130/179/114 
f 132/177/121 134/180/122 133/178/125 
f 134/180/122 135/181/124 133/178/125 
f 134/180/122 136/182/118 135/181/124 
f 136/182/118 131/175/115 135/181/124 
f 136/182/118 129/173/119 131/175/115 
f 137/183/113 138/184/120 139/185/115 
f 137/183/113 140/186/114 138/184/120 
f 140/187/114 141/188/125 138/189/120 
f 140/187/114 142/190/122 141/188/125 
f 142/190/122 143/191/126 141/188/125 
f 142/190/122 144/192/123 143/191/126 
f 144/192/123 139/185/115 143/191/126 
f 144/192/123 137/183/113 139/185/115 
f 145/193/113 146/194/114 147/195/115 
f 145/193/113 148/196/121 146/194/114 
f 148/197/121 149/198/122 146/199/114 
f 148/197/121 150/200/116 149/198/122 
f 150/200/116 151/201/126 149/198/122 
f 150/200/116 152/202/118 151/201/126 
f 152/202/118 147/195/115 151/201/126 
f 152/202/118 145/193/113 147/195/115 
f 153/203/119 154/204/127 155/205/115 
f 153/203/119 156/206/114 154/204/127 
f 156/207/114 157/208/122 154/209/127 
f 156/207/114 158/210/116 157/208/122 
f 158/210/116 159/211/123 157/208/122 
f 158/210/116 160/212/126 159/211/123 
f 160/212/126 155/205/115 159/211/123 
f 160/212/126 153/203/119 155/205/115 
f 161/213/119 162/214/127 163/215/115 
f 161/213/119 164/216/120 162/214/127 
f 164/217/120 165/218/125 162/219/127 
f 164/217/120 166/220/122 165/218/125 
f 166/220/122 167/221/123 165/218/125 
f 166/220/122 168/222/124 167/221/123 
f 168/222/124 163/215/115 167/221/123 
f 168/222/124 161/213/119 163/215/115 
f 169/163/113 170/164/114 171/165/115 
f 169/163/113 172/166/114 170/164/114 
f 172/167/114 173/168/125 170/169/114 
f 172/167/114 174/170/122 173/168/125 
f 174/170/122 175/171/118 173/168/125 
f 174/170/122 176/172/126 175/171/118 
f 176/172/126 171/165/115 175/171/118 
f 176/172/126 169/163/113 171/165/115 
f 177/173/113 178/174/120 179/175/115 
f 177/173/113 180/176/121 178/174/120 
f 180/177/121 181/178/122 178/179/120 
f 180/177/121 182/180/116 181/178/122 
f 182/180/116 183/181/124 181/178/122 
f 182/180/116 184/182/126 183/181/124 
f 184/182/126 179/175/115 183/181/124 
f 184/182/126 177/173/113 179/175/115 
f 185/183/113 186/184/114 187/185/115 
f 185/183/113 188/186/114 186/184/114 
f 188/187/114 189/188/116 186/189/114 
f 188/187/114 190/190/122 189/188/116 
f 190/190/122 191/191/126 189/188/116 
f 190/190/122 192/192/126 191/191/126 
f 192/192/126 187/185/115 191/191/126 
f 192/192/126 185/183/113 187/185/115 
f 193/163/113 194/164/120 195/165/115 
f 193/163/113 196/166/114 194/164/120 
f 196/167/114 197/168/116 194/169/120 
f 196/167/114 198/170/122 197/168/116 
f 198/170/122 199/171/123 197/168/116 
f 198/170/122 200/172/126 199/171/123 
f 200/172/126 195/165/115 199/171/123 
f 200/172/126 193/163/113 195/165/115 
f 201/193/113 202/194/114 203/195/115 
f 201/193/113 204/196/114 202/194/114 
f 204/197/114 205/198/116 202/199/114 
f 204/197/114 206/200/122 205/198/116 
f 206/200/122 207/201/126 205/198/116 
f 206/200/122 208/202/126 207/201/126 
f 208/202/126 203/195/115 207/201/126 
f 208/202/126 201/193/113 203/195/115 
f 209/203/113 210/204/127 211/205/115 
f 209/203/113 212/206/121 210/204/127 
f 212/207/121 213/208/116 210/209/127 
f 212/207/121 214/210/122 213/208/116 
f 214/210/122 215/211/124 213/208/116 
f 214/210/122 216/212/126 215/211/124 
f 216/212/126 211/205/115 215/211/124 
f 216/212/126 209/203/113 211/205/115 
f 217/213/113 218/214/120 219/215/115 
f 217/213/113 220/216/120 218/214/120 
f 220/217/120 221/218/116 218/219/120 
f 220/217/120 222/220/122 221/218/116 
f 222/220/122 223/221/124 221/218/116 
f 222/220/122 224/222/124 223/221/124 
f 224/222/124 219/215/115 223/221/124 
f 224/222/124 217/213/113 219/215/115 
f 225/173/113 226/174/120 227/175/115 
f 225/173/113 228/176/121 226/174/120 
f 228/177/121 229/178/122 226/179/120 
f 228/177/121 230/180/116 229/178/122 
f 230/180/116 231/181/124 229/178/122 
f 230/180/116 232/182/126 231/181/124 
f 232/182/126 227/175/115 231/181/124 
f 232/182/126 225/173/113 227/175/115 
f 233/183/113 234/184/114 235/185/115 
f 233/183/113 236/186/114 234/184/114 
f 236/187/114 237/188/116 234/189/114 
f 236/187/114 238/190/122 237/188/116 
f 238/190/122 239/191/126 237/188/116 
f 238/190/122 240/192/126 239/191/126 
f 240/192/126 235/185/115 239/191/126 
f 240/192/126 233/183/113 235/185/115 
f 241/193/119 242/194/127 243/195/128 
f 241/193/119 244/196/120 242/194/127 
f 244/197/120 245/198/117 242/199/127 
f 244/197/120 246/200/125 245/198/117 
f 246/200/125 247/201/124 245/198/117 
f 246/200/125 248/202/124 247/201/124 
f 248/202/124 243/195/128 247/201/124 
f 248/202/124 241/193/119 243/195/128 
f 249/163/119 250/164/121 251/165/128 
f 249/163/119 252/166/114 250/164/121 
f 252/167/114 253/168/125 250/169/121 
f 252/167/114 254/170/117 253/168/125 
f 254/170/117 255/171/118 253/168/125 
f 254/170/117 256/172/126 255/171/118 
f 256/172/126 251/165/128 255/171/118 
f 256/172/126 249/163/119 251/165/128 
f 257/203/119 258/204/127 259/205/128 
f 257/203/119 260/206/120 258/204/127 
f 260/207/120 261/208/117 258/209/127 
f 260/207/120 262/210/125 261/208/117 
f 262/210/125 263/211/124 261/208/117 
f 262/210/125 264/212/124 263/211/124 
f 264/212/124 259/205/128 263/211/124 
f 264/212/124 257/203/119 259/205/128 
s 2
f 265/223/129 266/224/130 267/225/131 
f 265/223/129 268/226/132 266/224/130 
f 268/226/132 269/227/133 266/224/130 
f 268/226/132 270/228/134 269/227/133 
f 270/228/134 271/229/135 269/227/133 
f 270/228/134 272/230/136 271/229/135 
f 272/230/136 273/231/137 271/229/135 
f 272/230/136 274/232/137 273/231/137 
f 274/233/137 275/234/138 273/235/137 
f 274/233/137 276/236/139 275/234/138 
f 276/236/139 277/237/140 275/234/138 
f 276/236/139 278/238/141 277/237/140 
f 278/238/141 279/239/142 277/237/140 
f 278/238/141 280/240/143 279/239/142 
f 280/240/143 267/225/131 279/239/142 
f 280/240/143 265/223/129 267/225/131 
f 281/241/129 282/242/130 283/243/131 
f 281/241/129 284/244/132 282/242/130 
f 284/244/132 285/245/133 282/242/130 
f 284/244/132 286/246/134 285/245/133 
f 286/246/134 287/247/135 285/245/133 
f 286/246/134 288/248/136 287/247/135 
f 288/248/136 289/249/137 287/247/135 
f 288/248/136 290/250/137 289/249/137 
f 290/251/137 291/252/138 289/253/137 
f 290/251/137 292/254/139 291/252/138 
f 292/254/139 293/255/140 291/252/138 
f 292/254/139 294/256/141 293/255/140 
f 294/256/141 295/257/142 293/255/140 
f 294/256/141 296/258/143 295/257/142 
f 296/258/143 283/243/131 295/257/142 
f 296/258/143 281/241/129 283/243/131 
# 392 faces

