#
# object Cylinder01
#

v  -12.7203 0.1714 -2.4871
v  -12.9420 -0.0983 0.6172
v  -12.9410 0.1703 0.6058
v  -12.7230 -0.0974 -2.4800
v  -11.7594 0.1704 -5.4822
v  -11.7588 -0.0988 -5.4848
v  -10.1264 0.1706 -8.1271
v  -10.1257 -0.0985 -8.1296
v  -7.9391 0.1731 -10.2425
v  -7.9385 -0.0961 -10.2451
v  -5.1536 0.1719 -11.8681
v  -5.1530 -0.0972 -11.8707
v  -2.1885 0.1708 -12.7784
v  -2.1878 -0.0984 -12.7809
v  0.9369 0.1698 -12.9478
v  0.9375 -0.0994 -12.9504
v  3.9758 0.1700 -12.3303
v  3.9764 -0.0991 -12.3329
v  6.7866 0.1711 -10.9786
v  6.7872 -0.0981 -10.9811
v  9.2784 0.1698 -9.0562
v  9.2790 -0.0994 -9.0588
v  11.1292 0.1710 -6.5302
v  11.1299 -0.0981 -6.5327
v  12.3911 0.1710 -3.6639
v  12.3984 -0.0975 -3.6536
v  12.9261 0.1699 -0.6065
v  12.9301 -0.0986 -0.5947
v  12.6854 0.1684 2.4822
v  12.6905 -0.1000 2.4950
v  11.7013 0.1678 5.4443
v  11.7098 -0.1005 5.4592
v  10.0375 0.1681 8.1085
v  10.0457 -0.1001 8.1263
v  7.9504 0.1614 10.1069
v  7.9632 -0.1064 10.1313
v  5.2247 0.1665 11.8114
v  5.2309 -0.1016 11.8314
v  2.1423 0.1680 12.7528
v  2.1461 -0.1001 12.7719
v  -0.9595 0.1671 12.8729
v  -0.9577 -0.1011 12.8919
v  -3.9971 0.1682 12.2860
v  -3.9988 -0.1000 12.3059
v  -6.7960 0.1679 10.9494
v  -6.7987 -0.1004 10.9669
v  -9.2545 0.1680 8.9928
v  -9.2552 -0.1004 9.0073
v  -11.1695 0.1687 6.5246
v  -11.1748 -0.0997 6.5397
v  -12.4161 0.1693 3.6686
v  -12.4171 -0.0992 3.6806
v  -12.6507 0.2089 -2.4711
v  -12.8728 0.2071 0.5990
v  -11.7105 0.2081 -5.4530
v  -10.0875 0.2080 -8.0992
v  -7.9045 0.2112 -10.1917
v  -5.1313 0.2098 -11.8198
v  -2.1717 0.2089 -12.7217
v  0.9344 0.2075 -12.8974
v  3.9482 0.2076 -12.2817
v  6.7644 0.2083 -10.9419
v  9.2420 0.2067 -9.0294
v  11.0980 0.2082 -6.5028
v  12.3422 0.2078 -3.6487
v  12.8846 0.2064 -0.6063
v  12.6351 0.2043 2.4634
v  11.6680 0.2040 5.4242
v  10.0161 0.2044 8.0843
v  7.9294 0.2089 10.0836
v  5.1952 0.2135 11.7734
v  2.1357 0.2258 12.7047
v  -0.9557 0.2298 12.8322
v  -3.9872 0.2203 12.2426
v  -6.7793 0.2201 10.9149
v  -9.2241 0.2092 8.9630
v  -11.1345 0.2050 6.5001
v  -12.3643 0.2054 3.6430
v  -10.1306 0.5329 -1.9878
v  -10.3143 0.5329 0.4890
v  -9.3595 0.5329 -4.3487
v  -8.0458 0.5329 -6.4565
v  -6.2659 0.5329 -8.1885
v  -4.1232 0.5330 -9.4444
v  -1.7421 0.5330 -10.1509
v  0.7388 0.5330 -10.2671
v  3.1754 0.5330 -9.7861
v  5.4261 0.5330 -8.7361
v  7.3601 0.5330 -7.1779
v  8.8650 0.5330 -5.2022
v  9.8534 0.5330 -2.9237
v  10.2678 0.5330 -0.4749
v  10.0841 0.5330 2.0019
v  9.3130 0.5330 4.3628
v  7.9993 0.5330 6.4706
v  6.2193 0.5330 8.2027
v  4.0766 0.5329 9.4585
v  1.6956 0.5329 10.1650
v  -0.7853 0.5329 10.2812
v  -3.2219 0.5329 9.8003
v  -5.4727 0.5329 8.7502
v  -7.4067 0.5329 7.1920
v  -8.9116 0.5329 5.2163
v  -9.9000 0.5329 2.9378
v  -0.0233 0.4830 0.0071
# 105 vertices

vn -0.8490 0.5019 -0.1651
vn -0.9986 0.0063 0.0525
vn -0.8656 0.4989 0.0416
vn -0.9823 0.0050 -0.1873
vn -0.8068 0.4582 -0.3730
vn -0.9079 0.0019 -0.4192
vn -0.7638 0.2858 -0.5787
vn -0.7787 0.0041 -0.6274
vn -0.6044 0.0062 -0.7966
vn -0.6035 0.0062 -0.7973
vn -0.4018 0.0078 -0.9157
vn -0.4010 0.0078 -0.9161
vn -0.1754 0.0090 -0.9845
vn -0.1748 0.0090 -0.9846
vn 0.0729 0.0097 -0.9973
vn 0.0732 0.0097 -0.9973
vn 0.3188 0.0098 -0.9478
vn 0.3186 0.0098 -0.9478
vn 0.5251 0.0093 -0.8510
vn 0.5248 0.0093 -0.8512
vn 0.7164 0.0125 -0.6975
vn 0.7155 0.0083 -0.6986
vn 0.7934 0.3974 -0.4610
vn 0.8658 0.0069 -0.5004
vn 0.8546 0.4487 -0.2614
vn 0.9579 0.0148 -0.2866
vn 0.9126 0.4065 -0.0437
vn 0.9990 0.0131 -0.0436
vn 0.8669 0.4667 0.1752
vn 0.9792 0.0288 0.2009
vn 0.8251 0.4112 0.3875
vn 0.9028 0.0524 0.4268
vn 0.7189 0.3736 0.5862
vn 0.7727 0.0663 0.6313
vn 0.5806 0.3300 0.7443
vn 0.6111 0.1000 0.7852
vn 0.3835 0.4075 0.8288
vn 0.4119 0.0769 0.9080
vn 0.1551 0.3669 0.9172
vn 0.1663 0.0724 0.9834
vn -0.0736 0.3130 0.9469
vn -0.0750 0.0700 0.9947
vn -0.2892 0.3699 0.8829
vn -0.3105 0.0725 0.9478
vn -0.5001 0.3332 0.7993
vn -0.5279 0.0604 0.8471
vn -0.6539 0.3988 0.6429
vn -0.7093 0.0403 0.7037
vn -0.7775 0.4279 0.4608
vn -0.8572 0.0452 0.5130
vn -0.8431 0.4748 0.2524
vn -0.9572 0.0164 0.2888
vn -0.4581 0.8847 -0.0860
vn -0.4739 0.8803 0.0217
vn -0.5053 0.8325 -0.2274
vn -0.5235 0.7884 -0.3231
vn -0.2115 0.9376 -0.2761
vn -0.4298 0.7845 -0.4471
vn -0.2289 0.9476 -0.2231
vn -0.3184 0.8491 -0.4215
vn -0.1508 0.9257 -0.3469
vn -0.2323 0.8152 -0.5306
vn -0.0602 0.9337 -0.3529
vn -0.0992 0.8385 -0.5358
vn 0.0294 0.9205 -0.3897
vn 0.0433 0.8012 -0.5968
vn 0.1131 0.9287 -0.3531
vn 0.1848 0.8253 -0.5336
vn 0.2226 0.9059 -0.3602
vn 0.3441 0.7551 -0.5580
vn 0.2953 0.9091 -0.2939
vn 0.4586 0.7715 -0.4410
vn 0.1106 0.9918 -0.0644
vn 0.5894 0.7375 -0.3297
vn 0.5596 0.8112 -0.1699
vn 0.6593 0.7512 -0.0319
vn 0.5520 0.8274 0.1039
vn 0.6196 0.7311 0.2856
vn 0.5885 0.6587 0.4688
vn 0.5090 0.5501 0.6621
vn 0.2862 0.7038 0.6502
vn 0.1305 0.6429 0.7548
vn -0.0644 0.5465 0.8350
vn -0.2418 0.6462 0.7238
vn -0.4330 0.5897 0.6817
vn -0.4953 0.7181 0.4889
vn -0.5610 0.7603 0.3273
vn -0.5168 0.8435 0.1468
vn -0.1232 0.9921 -0.0241
vn -0.1259 0.9920 0.0062
vn -0.1262 0.9920 0.0060
vn -0.1228 0.9922 -0.0235
vn -0.1129 0.9922 -0.0523
vn -0.1125 0.9923 -0.0518
vn -0.0962 0.9924 -0.0771
vn -0.0746 0.9923 -0.0984
vn -0.0494 0.9923 -0.1139
vn -0.0208 0.9923 -0.1218
vn 0.0088 0.9924 -0.1223
vn 0.0387 0.9924 -0.1172
vn 0.0662 0.9922 -0.1056
vn 0.0879 0.9924 -0.0863
vn 0.1074 0.9923 -0.0624
vn 0.1193 0.9922 -0.0355
vn 0.1191 0.9922 -0.0355
vn 0.1237 0.9923 -0.0060
vn 0.1239 0.9923 -0.0057
vn 0.1229 0.9921 0.0249
vn 0.1233 0.9921 0.0250
vn 0.1144 0.9920 0.0536
vn 0.1145 0.9920 0.0532
vn 0.0984 0.9920 0.0792
vn 0.0984 0.9920 0.0788
vn 0.0764 0.9919 0.1016
vn 0.0779 0.9921 0.0987
vn 0.0504 0.9922 0.1138
vn 0.0520 0.9925 0.1106
vn 0.0214 0.9928 0.1176
vn 0.0222 0.9930 0.1161
vn -0.0086 0.9930 0.1176
vn -0.0091 0.9930 0.1180
vn -0.0384 0.9927 0.1143
vn -0.0392 0.9926 0.1150
vn -0.0652 0.9925 0.1038
vn -0.0663 0.9923 0.1042
vn -0.0908 0.9921 0.0871
vn -0.0918 0.9920 0.0872
vn -0.1093 0.9919 0.0640
vn -0.1095 0.9919 0.0639
vn -0.1214 0.9919 0.0361
vn -0.1215 0.9919 0.0359
vn 0.0048 1.0000 -0.0002
vn -0.0000 1.0000 0.0000
vn 0.0048 1.0000 0.0009
vn 0.0044 1.0000 0.0021
vn 0.0038 1.0000 0.0030
vn 0.0029 1.0000 0.0039
vn 0.0019 1.0000 0.0045
vn 0.0008 1.0000 0.0048
vn -0.0004 1.0000 0.0048
vn -0.0015 1.0000 0.0046
vn -0.0026 1.0000 0.0041
vn -0.0035 1.0000 0.0034
vn -0.0042 1.0000 0.0025
vn -0.0047 1.0000 0.0014
vn -0.0049 1.0000 0.0002
vn -0.0048 1.0000 -0.0009
vn -0.0044 1.0000 -0.0020
vn -0.0038 1.0000 -0.0030
vn -0.0029 1.0000 -0.0039
vn -0.0019 1.0000 -0.0045
vn -0.0008 1.0000 -0.0048
vn 0.0004 1.0000 -0.0048
vn 0.0015 1.0000 -0.0046
vn 0.0026 1.0000 -0.0041
vn 0.0035 1.0000 -0.0034
vn 0.0042 1.0000 -0.0025
vn 0.0046 1.0000 -0.0014
# 158 vertex normals

vt 0.0368 0.6138 0.8330
vt 0.0133 0.4987 0.7190
vt 0.0229 0.4987 0.7950
vt 0.0275 0.6161 0.7571
vt 0.0776 0.7221 0.8674
vt 0.0691 0.7266 0.7915
vt 0.1421 0.8156 0.8962
vt 0.1348 0.8220 0.8203
vt 0.2258 0.8901 0.9177
vt 0.2203 0.8980 0.8418
vt 0.3310 0.9483 0.9306
vt 0.3276 0.9572 0.8547
vt 0.4428 0.9760 0.9342
vt 0.4416 0.9855 0.8583
vt 0.5578 0.9760 0.9283
vt 0.5589 0.9855 0.8524
vt 0.6695 0.9483 0.9132
vt 0.6729 0.9572 0.8373
vt 0.7714 0.8944 0.8898
vt 0.7768 0.9023 0.8139
vt 0.8575 0.8176 0.8595
vt 0.8646 0.8239 0.7836
vt 0.9233 0.7202 0.8240
vt 0.9317 0.7247 0.7480
vt 0.9636 0.6138 0.7853
vt 0.9728 0.6161 0.7094
vt 0.9784 0.4935 0.7459
vt 0.9879 0.4934 0.6699
vt 0.9636 0.3837 0.7078
vt 0.9728 0.3814 0.6319
vt 0.9285 0.2835 0.6734
vt 0.9369 0.2790 0.5974
vt 0.8669 0.1943 0.6446
vt 0.8740 0.1879 0.5686
vt 0.7837 0.1146 0.6231
vt 0.7890 0.1066 0.5472
vt 0.6842 0.0564 0.6102
vt 0.6875 0.0474 0.5342
vt 0.5739 0.0238 0.6066
vt 0.5750 0.0143 0.5306
vt 0.4569 0.0214 0.6125
vt 0.4557 0.0119 0.5366
vt 0.3443 0.0468 0.6276
vt 0.3408 0.0378 0.5517
vt 0.2390 0.0982 0.6510
vt 0.2335 0.0903 0.5750
vt 0.1500 0.1775 0.6813
vt 0.1428 0.1711 0.6054
vt 0.0823 0.2686 0.7168
vt 0.0738 0.2641 0.6409
vt 0.0372 0.3808 0.7555
vt 0.0279 0.3785 0.6795
vt 0.0466 0.6111 0.8433
vt 0.0274 0.4987 0.7950
vt 0.0330 0.4985 0.8053
vt 0.0412 0.6127 0.8330
vt 0.0866 0.7172 0.8777
vt 0.0816 0.7200 0.8674
vt 0.1496 0.8086 0.9064
vt 0.1454 0.8126 0.8962
vt 0.2315 0.8815 0.9278
vt 0.2283 0.8864 0.9177
vt 0.3346 0.9385 0.9407
vt 0.3326 0.9440 0.9306
vt 0.4440 0.9657 0.9443
vt 0.4433 0.9715 0.9342
vt 0.5566 0.9657 0.9384
vt 0.5573 0.9715 0.9283
vt 0.6659 0.9385 0.9233
vt 0.6679 0.9440 0.9132
vt 0.7657 0.8858 0.9000
vt 0.7689 0.8907 0.8898
vt 0.8499 0.8106 0.8697
vt 0.8541 0.8146 0.8595
vt 0.9144 0.7153 0.8343
vt 0.9193 0.7182 0.8240
vt 0.9538 0.6112 0.7957
vt 0.9593 0.6127 0.7853
vt 0.9683 0.4933 0.7563
vt 0.9739 0.4935 0.7459
vt 0.9537 0.3859 0.7183
vt 0.9592 0.3848 0.7078
vt 0.9195 0.2880 0.6840
vt 0.9245 0.2852 0.6734
vt 0.8594 0.2009 0.6552
vt 0.8636 0.1969 0.6446
vt 0.7785 0.1218 0.6871
vt 0.7816 0.1170 0.6231
vt 0.6810 0.0647 0.6742
vt 0.6831 0.0592 0.6102
vt 0.5729 0.0327 0.6706
vt 0.5734 0.0266 0.6066
vt 0.4581 0.0303 0.6765
vt 0.4571 0.0242 0.6125
vt 0.3476 0.0551 0.6916
vt 0.3450 0.0493 0.6276
vt 0.2443 0.1055 0.7150
vt 0.2407 0.1008 0.6510
vt 0.1570 0.1833 0.7453
vt 0.1522 0.1793 0.6813
vt 0.0913 0.2731 0.7273
vt 0.0863 0.2702 0.7168
vt 0.0470 0.3830 0.7659
vt 0.0416 0.3819 0.7555
vt 0.1519 0.5842 0.9204
vt 0.0422 0.4985 0.8053
vt 0.1414 0.4977 0.8906
vt 0.0555 0.6089 0.8433
vt 0.1826 0.6633 0.9473
vt 0.0947 0.7129 0.8777
vt 0.2308 0.7355 0.9698
vt 0.1565 0.8025 0.9064
vt 0.2965 0.7952 0.9866
vt 0.2367 0.8739 0.9278
vt 0.3731 0.8357 0.9967
vt 0.3379 0.9299 0.9407
vt 0.4571 0.8566 0.9995
vt 0.4451 0.9565 0.9443
vt 0.5436 0.8566 0.9949
vt 0.5555 0.9565 0.9384
vt 0.6276 0.8357 0.9831
vt 0.6627 0.9299 0.9233
vt 0.7041 0.7952 0.9648
vt 0.7604 0.8782 0.9000
vt 0.7689 0.7374 0.9411
vt 0.8431 0.8045 0.8697
vt 0.8180 0.6657 0.9133
vt 0.9063 0.7110 0.8343
vt 0.8487 0.5843 0.8831
vt 0.9449 0.6089 0.7957
vt 0.8600 0.4925 0.8522
vt 0.9591 0.4932 0.7563
vt 0.8486 0.4113 0.8224
vt 0.9448 0.3881 0.7183
vt 0.8242 0.3403 0.7955
vt 0.9114 0.2923 0.6840
vt 0.7784 0.2725 0.7730
vt 0.8525 0.2070 0.6552
vt 0.7165 0.2118 0.7562
vt 0.7733 0.1294 0.6871
vt 0.6423 0.1670 0.7461
vt 0.6777 0.0733 0.6742
vt 0.5597 0.1413 0.7433
vt 0.5717 0.0418 0.6706
vt 0.4713 0.1389 0.7479
vt 0.4592 0.0394 0.6765
vt 0.3863 0.1574 0.7597
vt 0.3508 0.0637 0.6916
vt 0.3064 0.1955 0.7780
vt 0.2495 0.1131 0.7150
vt 0.2388 0.2556 0.8018
vt 0.1638 0.1894 0.7453
vt 0.1853 0.3254 0.8295
vt 0.0994 0.2774 0.7273
vt 0.1523 0.4084 0.8597
vt 0.0559 0.3852 0.7659
vt 0.5002 0.4978 0.8574
# 157 texture coords

g Cylinder01
usemtl Material__26
s 4
f 1/1/1 2/2/2 3/3/3 
f 4/4/4 2/2/2 1/1/1 
f 5/5/5 4/4/4 1/1/1 
f 6/6/6 4/4/4 5/5/5 
f 7/7/7 6/6/6 5/5/5 
f 8/8/8 6/6/6 7/7/7 
f 9/9/9 8/8/8 7/7/7 
f 10/10/10 8/8/8 9/9/9 
f 11/11/11 10/10/10 9/9/9 
f 12/12/12 10/10/10 11/11/11 
f 13/13/13 12/12/12 11/11/11 
f 14/14/14 12/12/12 13/13/13 
f 15/15/15 14/14/14 13/13/13 
f 16/16/16 14/14/14 15/15/15 
f 17/17/17 16/16/16 15/15/15 
f 18/18/18 16/16/16 17/17/17 
f 19/19/19 18/18/18 17/17/17 
f 20/20/20 18/18/18 19/19/19 
f 21/21/21 20/20/20 19/19/19 
f 22/22/22 20/20/20 21/21/21 
f 23/23/23 22/22/22 21/21/21 
f 24/24/24 22/22/22 23/23/23 
f 25/25/25 24/24/24 23/23/23 
f 26/26/26 24/24/24 25/25/25 
f 27/27/27 26/26/26 25/25/25 
f 28/28/28 26/26/26 27/27/27 
f 29/29/29 28/28/28 27/27/27 
f 30/30/30 28/28/28 29/29/29 
f 31/31/31 30/30/30 29/29/29 
f 32/32/32 30/30/30 31/31/31 
f 33/33/33 32/32/32 31/31/31 
f 34/34/34 32/32/32 33/33/33 
f 35/35/35 34/34/34 33/33/33 
f 36/36/36 34/34/34 35/35/35 
f 37/37/37 36/36/36 35/35/35 
f 38/38/38 36/36/36 37/37/37 
f 39/39/39 38/38/38 37/37/37 
f 40/40/40 38/38/38 39/39/39 
f 41/41/41 40/40/40 39/39/39 
f 42/42/42 40/40/40 41/41/41 
f 43/43/43 42/42/42 41/41/41 
f 44/44/44 42/42/42 43/43/43 
f 45/45/45 44/44/44 43/43/43 
f 46/46/46 44/44/44 45/45/45 
f 47/47/47 46/46/46 45/45/45 
f 48/48/48 46/46/46 47/47/47 
f 49/49/49 48/48/48 47/47/47 
f 50/50/50 48/48/48 49/49/49 
f 51/51/51 50/50/50 49/49/49 
f 52/52/52 50/50/50 51/51/51 
f 3/3/3 52/52/52 51/51/51 
f 2/2/2 52/52/52 3/3/3 
f 53/53/53 3/54/3 54/55/54 
f 1/56/1 3/54/3 53/53/53 
f 55/57/55 1/56/1 53/53/53 
f 5/58/5 1/56/1 55/57/55 
f 56/59/56 5/58/5 55/57/55 
f 7/60/7 5/58/5 56/59/56 
s 8
f 57/61/57 7/60/58 56/59/59 
f 9/62/60 7/60/58 57/61/57 
f 58/63/61 9/62/60 57/61/57 
f 11/64/62 9/62/60 58/63/61 
f 59/65/63 11/64/62 58/63/61 
f 13/66/64 11/64/62 59/65/63 
f 60/67/65 13/66/64 59/65/63 
f 15/68/66 13/66/64 60/67/65 
f 61/69/67 15/68/66 60/67/65 
f 17/70/68 15/68/66 61/69/67 
f 62/71/69 17/70/68 61/69/67 
f 19/72/70 17/70/68 62/71/69 
f 63/73/71 19/72/70 62/71/69 
f 21/74/72 19/72/70 63/73/71 
f 64/75/73 21/74/72 63/73/71 
s 4
f 23/76/23 21/74/21 64/75/74 
f 65/77/75 23/76/23 64/75/74 
f 25/78/25 23/76/23 65/77/75 
f 66/79/76 25/78/25 65/77/75 
f 27/80/27 25/78/25 66/79/76 
f 67/81/77 27/80/27 66/79/76 
f 29/82/29 27/80/27 67/81/77 
f 68/83/78 29/82/29 67/81/77 
f 31/84/31 29/82/29 68/83/78 
f 69/85/79 31/84/31 68/83/78 
f 33/86/33 31/84/31 69/85/79 
f 70/87/80 33/86/33 69/85/79 
f 35/88/35 33/86/33 70/87/80 
f 71/89/81 35/88/35 70/87/80 
f 37/90/37 35/88/35 71/89/81 
f 72/91/82 37/90/37 71/89/81 
f 39/92/39 37/90/37 72/91/82 
f 73/93/83 39/92/39 72/91/82 
f 41/94/41 39/92/39 73/93/83 
f 74/95/84 41/94/41 73/93/83 
f 43/96/43 41/94/41 74/95/84 
f 75/97/85 43/96/43 74/95/84 
f 45/98/45 43/96/43 75/97/85 
f 76/99/86 45/98/45 75/97/85 
f 47/100/47 45/98/45 76/99/86 
f 77/101/87 47/100/47 76/99/86 
f 49/102/49 47/100/47 77/101/87 
f 78/103/88 49/102/49 77/101/87 
f 51/104/51 49/102/49 78/103/88 
f 54/55/54 51/104/51 78/103/88 
f 3/54/3 51/104/51 54/55/54 
s 8
f 79/105/89 54/106/90 80/107/91 
f 53/108/92 54/106/90 79/105/89 
f 81/109/93 53/108/92 79/105/89 
f 55/110/94 53/108/92 81/109/93 
f 82/111/95 55/110/94 81/109/93 
f 56/112/59 55/110/94 82/111/95 
f 83/113/96 56/112/59 82/111/95 
f 57/114/57 56/112/59 83/113/96 
f 84/115/97 57/114/57 83/113/96 
f 58/116/61 57/114/57 84/115/97 
f 85/117/98 58/116/61 84/115/97 
f 59/118/63 58/116/61 85/117/98 
f 86/119/99 59/118/63 85/117/98 
f 60/120/65 59/118/63 86/119/99 
f 87/121/100 60/120/65 86/119/99 
f 61/122/67 60/120/65 87/121/100 
f 88/123/101 61/122/67 87/121/100 
f 62/124/69 61/122/67 88/123/101 
f 89/125/102 62/124/69 88/123/101 
f 63/126/71 62/124/69 89/125/102 
f 90/127/103 63/126/71 89/125/102 
f 64/128/73 63/126/71 90/127/103 
f 91/129/104 64/128/73 90/127/103 
f 65/130/105 64/128/73 91/129/104 
f 92/131/106 65/130/105 91/129/104 
f 66/132/107 65/130/105 92/131/106 
f 93/133/108 66/132/107 92/131/106 
f 67/134/109 66/132/107 93/133/108 
f 94/135/110 67/134/109 93/133/108 
f 68/136/111 67/134/109 94/135/110 
f 95/137/112 68/136/111 94/135/110 
f 69/138/113 68/136/111 95/137/112 
f 96/139/114 69/138/113 95/137/112 
f 70/140/115 69/138/113 96/139/114 
f 97/141/116 70/140/115 96/139/114 
f 71/142/117 70/140/115 97/141/116 
f 98/143/118 71/142/117 97/141/116 
f 72/144/119 71/142/117 98/143/118 
f 99/145/120 72/144/119 98/143/118 
f 73/146/121 72/144/119 99/145/120 
f 100/147/122 73/146/121 99/145/120 
f 74/148/123 73/146/121 100/147/122 
f 101/149/124 74/148/123 100/147/122 
f 75/150/125 74/148/123 101/149/124 
f 102/151/126 75/150/125 101/149/124 
f 76/152/127 75/150/125 102/151/126 
f 103/153/128 76/152/127 102/151/126 
f 77/154/129 76/152/127 103/153/128 
f 104/155/130 77/154/129 103/153/128 
f 78/156/131 77/154/129 104/155/130 
f 80/107/91 78/156/131 104/155/130 
f 54/106/90 78/156/131 80/107/91 
s 16
f 80/107/132 105/157/133 79/105/134 
f 79/105/134 105/157/133 81/109/135 
f 81/109/135 105/157/133 82/111/136 
f 82/111/136 105/157/133 83/113/137 
f 83/113/137 105/157/133 84/115/138 
f 84/115/138 105/157/133 85/117/139 
f 85/117/139 105/157/133 86/119/140 
f 86/119/140 105/157/133 87/121/141 
f 87/121/141 105/157/133 88/123/142 
f 88/123/142 105/157/133 89/125/143 
f 89/125/143 105/157/133 90/127/144 
f 90/127/144 105/157/133 91/129/145 
f 91/129/145 105/157/133 92/131/146 
f 92/131/146 105/157/133 93/133/147 
f 93/133/147 105/157/133 94/135/148 
f 94/135/148 105/157/133 95/137/149 
f 95/137/149 105/157/133 96/139/150 
f 96/139/150 105/157/133 97/141/151 
f 97/141/151 105/157/133 98/143/152 
f 98/143/152 105/157/133 99/145/153 
f 99/145/153 105/157/133 100/147/154 
f 100/147/154 105/157/133 101/149/155 
f 101/149/155 105/157/133 102/151/156 
f 102/151/156 105/157/133 103/153/157 
f 103/153/157 105/157/133 104/155/158 
f 104/155/158 105/157/133 80/107/132 
# 182 faces

#
# object road01
#

v  -10.3977 0.0276 -2.0867
v  -14.3174 0.0279 0.6390
v  -10.5869 0.0276 0.4643
v  -14.0616 0.0279 -2.8099
v  -9.6035 0.0276 -4.5183
v  -12.9879 0.0279 -6.0973
v  -8.2504 0.0276 -6.6892
v  -11.1586 0.0279 -9.0323
v  -6.4171 0.0276 -8.4732
v  -8.6801 0.0279 -11.4442
v  -4.2102 0.0276 -9.7666
v  -5.6964 0.0279 -13.1928
v  -1.7578 0.0276 -10.4943
v  -2.3809 0.0279 -14.1766
v  0.7974 0.0276 -10.6140
v  1.0736 0.0279 -14.3384
v  3.3070 0.0276 -10.1187
v  4.4665 0.0279 -13.6688
v  5.6252 0.0276 -9.0371
v  7.6006 0.0279 -12.2066
v  7.6171 0.0276 -7.4323
v  10.2936 0.0279 -10.0369
v  9.1671 0.0276 -5.3973
v  12.3892 0.0279 -7.2857
v  10.1851 0.0276 -3.0506
v  13.7655 0.0279 -4.1130
v  10.6119 0.0276 -0.5284
v  14.3425 0.0279 -0.7031
v  10.4227 0.0276 2.0226
v  14.0867 0.0279 2.7458
v  9.6285 0.0276 4.4542
v  13.0129 0.0279 6.0332
v  8.2754 0.0276 6.6251
v  11.1837 0.0279 8.9682
v  6.4422 0.0276 8.4091
v  8.7051 0.0279 11.3801
v  4.2352 0.0276 9.7026
v  5.7215 0.0279 13.1287
v  1.7829 0.0276 10.4302
v  2.4060 0.0279 14.1126
v  -0.7724 0.0276 10.5499
v  -1.0486 0.0279 14.2743
v  -3.2820 0.0276 10.0546
v  -4.4415 0.0279 13.6047
v  -5.6001 0.0276 8.9731
v  -7.5755 0.0279 12.1425
v  -7.5921 0.0276 7.3682
v  -10.2686 0.0279 9.9728
v  -9.1421 0.0275 5.3332
v  -12.3642 0.0279 7.2216
v  -10.1601 0.0275 2.9865
v  -13.7404 0.0279 4.0489
# 52 vertices

vn 0.0001 1.0000 0.0000
vn 0.0001 1.0000 -0.0000
vn 0.0001 1.0000 0.0001
vn 0.0000 1.0000 0.0001
vn -0.0000 1.0000 0.0001
vn -0.0001 1.0000 0.0001
vn -0.0001 1.0000 0.0000
vn -0.0001 1.0000 -0.0000
vn -0.0001 1.0000 -0.0001
vn -0.0000 1.0000 -0.0001
vn 0.0000 1.0000 -0.0001
vn 0.0001 1.0000 -0.0001
# 12 vertex normals

vt 0.2022 0.7990 0.8035
vt 0.0024 0.7003 0.4341
vt 0.2026 0.6995 0.7655
vt 0.0017 0.7995 0.5217
vt 0.2018 0.8970 0.8379
vt 0.0009 0.8991 0.6009
vt 0.2028 1.0003 0.8667
vt 0.0014 0.9998 0.6672
vt 0.2031 1.1010 0.8882
vt 0.0012 1.0997 0.7166
vt 0.2033 1.1991 0.9011
vt 0.0010 1.1992 0.7463
vt 0.2034 1.2988 0.9047
vt 0.0009 1.2994 0.7546
vt 0.2040 1.3996 0.8988
vt 0.0014 1.3989 0.7410
vt 0.2039 1.5008 0.8837
vt 0.0016 1.5010 0.7062
vt 0.2033 1.5970 0.8603
vt 0.0015 1.5982 0.6524
vt 0.2040 1.6981 0.8300
vt 0.0017 1.6983 0.5826
vt 0.2036 1.8001 0.7945
vt 0.0010 1.7999 0.5008
vt 0.2042 1.8989 0.7558
vt 0.0012 1.9003 0.4120
vt 0.2018 2.0008 0.7164
vt 0.0018 2.0001 0.3211
vt 0.2023 2.0999 0.6783
vt 0.0024 2.0990 0.2334
vt 0.2025 2.2002 0.6439
vt 0.0025 2.1991 0.1542
vt 0.2020 2.2987 0.6151
vt 0.0024 2.2987 0.0879
vt 0.2021 2.3987 0.5936
vt 0.0022 2.3987 0.0385
vt 0.2023 2.4994 0.5807
vt 0.0021 2.4987 0.0088
vt 0.2019 2.5982 0.5771
vt 0.0026 2.5979 0.0005
vt 0.2046 0.0981 0.5830
vt 0.0040 0.0010 0.0005
vt 0.2049 0.0004 0.5771
vt 0.0036 0.0979 0.0141
vt 0.2032 0.1955 0.5981
vt 0.0028 0.1971 0.0489
vt 0.2032 0.2977 0.6215
vt 0.0025 0.2979 0.1027
vt 0.2031 0.3990 0.6518
vt 0.0026 0.3987 0.1725
vt 0.2038 0.4999 0.6873
vt 0.0027 0.4978 0.2543
vt 0.2020 0.5995 0.7260
vt 0.0018 0.5985 0.3432
# 54 texture coords

g road01
usemtl Material__39
s 8
f 106/158/159 107/159/160 108/160/160 
f 109/161/159 107/159/160 106/158/159 
f 110/162/159 109/161/159 106/158/159 
f 111/163/159 109/161/159 110/162/159 
f 112/164/161 111/163/159 110/162/159 
f 113/165/161 111/163/159 112/164/161 
f 114/166/162 113/165/161 112/164/161 
f 115/167/162 113/165/161 114/166/162 
f 116/168/162 115/167/162 114/166/162 
f 117/169/162 115/167/162 116/168/162 
f 118/170/162 117/169/162 116/168/162 
f 119/171/162 117/169/162 118/170/162 
f 120/172/163 119/171/162 118/170/162 
f 121/173/163 119/171/162 120/172/163 
f 122/174/163 121/173/163 120/172/163 
f 123/175/163 121/173/163 122/174/163 
f 124/176/163 123/175/163 122/174/163 
f 125/177/163 123/175/163 124/176/163 
f 126/178/164 125/177/163 124/176/163 
f 127/179/164 125/177/163 126/178/164 
f 128/180/165 127/179/164 126/178/164 
f 129/181/165 127/179/164 128/180/165 
f 130/182/165 129/181/165 128/180/165 
f 131/183/165 129/181/165 130/182/165 
f 132/184/165 131/183/165 130/182/165 
f 133/185/165 131/183/165 132/184/165 
f 134/186/166 133/185/165 132/184/165 
f 135/187/166 133/185/165 134/186/166 
f 136/188/166 135/187/166 134/186/166 
f 137/189/166 135/187/166 136/188/166 
f 138/190/167 137/189/166 136/188/166 
f 139/191/167 137/189/166 138/190/167 
f 140/192/167 139/191/167 138/190/167 
f 141/193/167 139/191/167 140/192/167 
f 142/194/168 141/193/167 140/192/167 
f 143/195/168 141/193/167 142/194/168 
f 144/196/168 143/195/168 142/194/168 
f 145/197/168 143/195/168 144/196/168 
f 146/198/169 145/199/168 144/200/168 
f 147/201/169 145/199/168 146/198/169 
f 148/202/169 147/201/169 146/198/169 
f 149/203/169 147/201/169 148/202/169 
f 150/204/169 149/203/169 148/202/169 
f 151/205/169 149/203/169 150/204/169 
f 152/206/170 151/205/169 150/204/169 
f 153/207/170 151/205/169 152/206/170 
f 154/208/160 153/207/170 152/206/170 
f 155/209/160 153/207/170 154/208/160 
f 156/210/160 155/209/160 154/208/160 
f 157/211/160 155/209/160 156/210/160 
f 108/160/160 157/211/160 156/210/160 
f 107/159/160 157/211/160 108/160/160 
# 52 faces

